<svg width="850" height="855" viewBox="0 0 850 855" fill="none" xmlns="http://www.w3.org/2000/svg">
<path d="M623.459 799.261C672.453 773.151 716.313 737.443 751.547 694.552C786.839 651.724 813.516 601.865 829.693 548.802C845.865 495.735 851.547 439.505 846.172 384.318C843.49 356.735 838.125 329.406 830.13 302.865C822.136 276.328 811.521 250.578 798.547 226.078C772.531 177.12 736.912 133.266 694.104 98.021C651.354 62.7137 601.563 36.0002 548.547 19.7554C495.526 3.53145 439.328 -2.27584 384.115 2.97937C328.891 8.15645 274.781 24.5002 225.75 50.4585C176.745 76.4742 132.839 112.094 97.5419 154.922C79.8752 176.313 64.3284 199.459 51.1825 223.891C38.0263 248.323 27.344 274.084 19.219 300.61C3.01066 353.688 -2.69767 409.943 2.65649 465.162C7.92733 520.396 24.3544 574.474 50.3909 623.448C63.443 647.912 78.8492 671.125 96.3805 692.604C113.912 714.078 133.563 733.813 154.917 751.49C197.646 786.839 247.422 813.61 300.453 829.917C353.485 846.214 409.729 852.026 464.979 846.766C520.24 841.589 574.391 825.24 623.459 799.261ZM623.521 799.38C574.485 825.458 520.334 841.922 465.021 847.214C409.724 852.578 353.391 846.87 300.224 830.662C247.068 814.438 197.115 787.714 154.198 752.36C111.214 717.073 75.5732 673.011 49.495 623.922C23.4742 574.797 7.08358 520.578 1.89087 465.235C-3.38517 409.906 2.42733 353.578 18.7346 300.464C35.0784 247.365 61.7919 197.464 97.1357 154.589C132.427 111.667 176.349 75.9325 225.406 49.8179C274.474 23.7242 328.667 7.2502 384.016 1.95854C439.349 -3.41126 495.735 2.30229 548.901 18.5887C602.078 34.87 652.016 61.6512 694.906 97.0471C737.849 132.391 773.589 176.37 799.698 225.469C825.75 274.594 842.255 328.818 847.417 384.203C852.667 439.563 846.828 495.917 830.49 549.042C814.136 602.167 787.318 652.037 751.906 694.849C716.552 737.714 672.584 773.36 623.521 799.38Z" fill="#959595"/>
<path d="M17.7706 264.646C9.43731 269.073 6.27065 279.417 10.6977 287.75C15.1248 296.084 25.4686 299.25 33.7967 294.823C42.13 290.396 45.2967 280.052 40.8696 271.724C36.4477 263.391 26.104 260.224 17.7706 264.646ZM602.14 850.87C587 858.912 568.208 853.156 560.167 838.016C552.125 822.875 557.88 804.084 573.021 796.042C588.161 788 606.953 793.755 614.995 808.896C623.036 824.037 617.281 842.828 602.14 850.87Z" fill="#7C9C30"/>
<path d="M602.338 759.5C417.448 857.703 187.958 787.427 89.7603 602.537C-8.43764 417.646 61.8384 188.156 246.729 89.9585C431.614 -8.23937 661.104 62.0367 759.302 246.922C857.505 431.813 787.229 661.302 602.338 759.5Z" fill="#C9C9C9"/>
</svg>
