<?xml version="1.0" encoding="utf-8"?>
<!-- Generator: Adobe Illustrator 27.9.0, SVG Export Plug-In . SVG Version: 6.00 Build 0)  -->
<svg version="1.1" id="Layer_1" xmlns="http://www.w3.org/2000/svg" xmlns:xlink="http://www.w3.org/1999/xlink" x="0px" y="0px"
	 viewBox="0 0 280.8 258.2" style="enable-background:new 0 0 280.8 258.2;" xml:space="preserve">
<style type="text/css">
	.st0{fill:url(#SVGID_1_);}
	.st1{opacity:0.5;fill:url(#SVGID_00000063616242869496809440000002006200087201958583_);}
	.st2{fill:url(#SVGID_00000134959844642811153390000002814158287744306566_);}
	.st3{fill:#FFFFFF;}
	.st4{opacity:0.27;}
	.st5{opacity:0.5;fill:url(#SVGID_00000147912512071769030130000006830787814161883029_);}
	.st6{opacity:0.5;fill:url(#SVGID_00000030483875783935088460000010152013215509526656_);}
	.st7{opacity:0.5;fill:url(#SVGID_00000104706444592892775410000001723235045316679604_);}
	.st8{opacity:0.5;}
	.st9{fill:#FAFAFA;}
	.st10{fill:none;}
</style>
<g>
	<g>
		
			<image style="overflow:visible;" width="295" height="295" xlink:href="7FF87910.png"  transform="matrix(1 0 0 1 -0.4971 -18.83)">
		</image>
	</g>
	
		<image style="overflow:visible;" width="634" height="634" xlink:href="C:\Users\User\Desktop\AV.png"  transform="matrix(0.3475 0 0 0.3475 36.7333 16.3601)">
	</image>
	<g>
		<g>
			<linearGradient id="SVGID_1_" gradientUnits="userSpaceOnUse" x1="99.1216" y1="242.8687" x2="194.1596" y2="13.2075">
				<stop  offset="0" style="stop-color:#F6F5D1"/>
				<stop  offset="0.1404" style="stop-color:#EBC982"/>
				<stop  offset="0.324" style="stop-color:#735020"/>
				<stop  offset="0.5914" style="stop-color:#BE9751"/>
				<stop  offset="0.7903" style="stop-color:#503013"/>
				<stop  offset="1" style="stop-color:#F6F5D1"/>
			</linearGradient>
			<path class="st0" d="M269.4,142.3c-1.8,16.1-6.8,31.7-14.6,45.9c-7.8,14.2-18.3,26.8-31,37c-12.6,10.2-27.3,17.8-42.9,22.3
				c-15.6,4.5-32.1,5.8-48.3,3.9c-16.1-1.9-31.8-7.1-46-15.1c-14.1-8-26.6-18.7-36.6-31.4c-10-12.7-17.6-27.3-22-42.9
				c-4.5-15.6-5.9-32-4.1-48.1c1.8-16.1,6.7-31.9,14.6-46.1C46.3,53.6,57,41,69.7,30.8c12.7-10.1,27.4-17.7,43.1-22.2
				c15.6-4.5,32.2-5.8,48.3-3.9c16.1,1.9,32,6.9,46.1,14.9c14.2,8,26.7,18.8,36.7,31.6c10,12.8,17.4,27.5,21.7,43.1
				C270,109.8,271.3,126.2,269.4,142.3z M269.2,142.3c1.8-16,0.5-32.4-4.1-47.8C260.6,79,253,64.5,242.9,52
				c-10.1-12.5-22.6-23-36.6-30.7c-14-7.7-29.5-12.7-45.4-14.5c-15.9-1.8-32.1-0.5-47.5,3.9C98,15,83.5,22.4,70.9,32.3
				c-12.6,9.9-23.2,22.3-31.1,36.3C32,82.6,26.9,98.1,25,114.1c-1.9,15.9-0.7,32.3,3.7,47.8c4.4,15.5,11.8,30.1,21.9,42.7
				c5,6.3,10.6,12.1,16.8,17.3c6.2,5.2,12.8,9.7,19.9,13.6c14.1,7.7,29.7,12.6,45.6,14.4c8,0.9,16,1,24,0.4c8-0.7,15.9-2.1,23.6-4.3
				c15.4-4.3,30-11.8,42.6-21.6c12.7-9.9,23.4-22.3,31.3-36.3C262.3,173.9,267.3,158.3,269.2,142.3z"/>
		</g>
	</g>
	<g>
		<g>
			
				<radialGradient id="SVGID_00000152961202439974235800000004857110494534576773_" cx="1205.1931" cy="-10411.96" r="14.6278" gradientTransform="matrix(0.6042 -1.0761 -0.8359 -0.4693 -9393.6562 -3484.2803)" gradientUnits="userSpaceOnUse">
				<stop  offset="0" style="stop-color:#606060;stop-opacity:0.8"/>
				<stop  offset="0.7011" style="stop-color:#5A5959;stop-opacity:0.1"/>
				<stop  offset="1" style="stop-color:#5A5959;stop-opacity:0"/>
			</radialGradient>
			<path style="opacity:0.5;fill:url(#SVGID_00000152961202439974235800000004857110494534576773_);" d="M46.8,89.3
				c-6.8-3.8-16.2,0.2-21.1,8.9c-4.9,8.7-3.4,18.8,3.4,22.6c6.8,3.8,16.2-0.2,21.1-8.9C55,103.2,53.5,93.1,46.8,89.3z"/>
			<g>
				
					<radialGradient id="SVGID_00000036213534667522126080000016077119188504232895_" cx="10871.0332" cy="4087.6917" r="16.944" gradientTransform="matrix(0.856 0.5169 0.5169 -0.856 -11396.6533 -2025.319)" gradientUnits="userSpaceOnUse">
					<stop  offset="0" style="stop-color:#54AB76"/>
					<stop  offset="0.5726" style="stop-color:#85BA9E"/>
					<stop  offset="0.7193" style="stop-color:#8EBEA0"/>
					<stop  offset="0.9611" style="stop-color:#A7C7A7"/>
					<stop  offset="1" style="stop-color:#ACC9A8"/>
				</radialGradient>
				<circle style="fill:url(#SVGID_00000036213534667522126080000016077119188504232895_);" cx="21.7" cy="95.1" r="16.9"/>
				<g>
					<path class="st3" d="M38,93.3c0.2,0.4,0.4,0.7,0.4,0.5c0.2-0.4-0.3-2.3-0.7-2.1c0,0-0.1,0.1-0.1,0.1
						C37.6,92.1,37.8,92.9,38,93.3"/>
					<path class="st3" d="M36.1,100.2c0.6-0.1,1-1,0.5-1.3c-0.3-0.2-0.9,0-1,0.6C35.4,100,35.7,100.2,36.1,100.2"/>
					<path class="st3" d="M34.9,105.7c0.4-0.4,0.8-1,0.7-1.1c-0.2,0-1.6,1.4-1.7,1.8c0,0.2,0.4-0.1,0.8-0.5
						C34.8,105.9,34.8,105.8,34.9,105.7"/>
					<path class="st3" d="M31,85.3c0.8,0.4,1.4-0.1,1.2-0.9c-0.3-1.1-1.7-1.6-2-0.9c0,0,0,0.1,0,0.1C29.9,84.4,30.5,85.1,31,85.3"/>
					<path class="st3" d="M27,99.6c1.2,0.1,1.9-1.7,1.1-2.5c-0.5-0.6-1.7-0.4-2.1,0.9C25.8,99,26.5,99.5,27,99.6"/>
					<path class="st3" d="M24.6,111.1c0.9-0.2,1.5-0.7,1-1c-0.6-0.4-2.2-0.1-2.4,0.6C23.2,111.1,24.1,111.1,24.6,111.1"/>
					<path class="st3" d="M19.3,81.7c1.1,0,1.9-1,1.3-1.6c-0.6-0.5-2-0.2-2.4,0.6C18.1,81.5,18.8,81.7,19.3,81.7"/>
					<path class="st3" d="M15.2,96.6c1.1,0.2,1.9-1.5,1.2-2.5c-0.6-0.8-1.7-0.6-2.1,0.7C14.1,95.8,14.7,96.5,15.2,96.6"/>
					<path class="st3" d="M12.7,108.6c0.7,0.4,1.2,0.3,1.1-0.2c-0.2-0.8-1.8-1.7-2.1-1.2c0,0,0,0.1,0,0.1
						C11.5,107.8,12.2,108.4,12.7,108.6"/>
					<path class="st3" d="M9.2,84.3c0.7-0.6,1.2-1.2,0.9-1.3C9.8,83,8.7,84,8.5,84.5c-0.1,0.2,0.2,0.1,0.4,0
						C9,84.5,9.1,84.5,9.2,84.3"/>
					<path class="st3" d="M6.9,92.8c0.5,0.3,1-0.6,0.7-1.3c-0.2-0.6-0.9-0.5-1.1,0c0,0,0,0.1,0,0.1C6.4,92.3,6.6,92.7,6.9,92.8"/>
					<path class="st3" d="M5.4,99.7c0.2,0.5,0.4,0.8,0.4,0.7c0.1-0.3-0.6-2.4-0.8-2.3c0,0,0,0,0,0C5,98.4,5.2,99.1,5.4,99.7"/>
				</g>
				<g class="st4">
					<image style="overflow:visible;" width="16" height="6" xlink:href="7FF87917.png"  transform="matrix(1 0 0 1 5.5029 86.17)">
					</image>
					<image style="overflow:visible;" width="16" height="6" xlink:href="7FF87911.png"  transform="matrix(1 0 0 1 5.5029 86.17)">
					</image>
				</g>
				
					<radialGradient id="SVGID_00000065043414230992128970000012212541373664828310_" cx="-2008.2837" cy="-3628.2031" r="5.8941" gradientTransform="matrix(-0.2294 -1.1805 -1.0751 0.2089 -4347.6465 -1513.3348)" gradientUnits="userSpaceOnUse">
					<stop  offset="0" style="stop-color:#FFFFFF"/>
					<stop  offset="1" style="stop-color:#FFFFFF;stop-opacity:0"/>
				</radialGradient>
				<path style="opacity:0.5;fill:url(#SVGID_00000065043414230992128970000012212541373664828310_);" d="M12.3,92.3
					c-3.5,0.7-5.8,4.4-5,8.4c0.8,3.9,4.3,6.5,7.8,5.9c3.5-0.7,5.8-4.4,5-8.4C19.3,94.3,15.8,91.6,12.3,92.3z"/>
			</g>
		</g>
		<g>
			
				<radialGradient id="SVGID_00000132783733023580249160000004244016346422593973_" cx="-4899.4595" cy="-10804.6572" r="7.907" gradientTransform="matrix(-0.7093 -1.0099 -0.965 0.6779 -13679.4189 2414.5977)" gradientUnits="userSpaceOnUse">
				<stop  offset="0" style="stop-color:#606060;stop-opacity:0.8"/>
				<stop  offset="0.7011" style="stop-color:#5A5959;stop-opacity:0.1"/>
				<stop  offset="1" style="stop-color:#5A5959;stop-opacity:0"/>
			</radialGradient>
			<path style="opacity:0.5;fill:url(#SVGID_00000132783733023580249160000004244016346422593973_);" d="M216.4,30.3
				c-4.2,3-5.1,8.9-2,13.3c3.1,4.4,9,5.6,13.2,2.6c4.2-3,5.1-8.9,2-13.3C226.6,28.5,220.6,27.4,216.4,30.3z"/>
			<g>
				
					<image style="overflow:visible;" width="15" height="16" xlink:href="7FF87913.png"  transform="matrix(1 0 0 1 218.5029 24.17)">
				</image>
			</g>
		</g>
		<g>
			
				<radialGradient id="SVGID_00000158010167669189936810000009231310676079652542_" cx="-2174.9846" cy="-9539.5068" r="4.7553" gradientTransform="matrix(-0.6631 1.0408 0.9946 0.6336 8251.7832 8545.8711)" gradientUnits="userSpaceOnUse">
				<stop  offset="0" style="stop-color:#606060;stop-opacity:0.8"/>
				<stop  offset="0.7011" style="stop-color:#5A5959;stop-opacity:0.1"/>
				<stop  offset="1" style="stop-color:#5A5959;stop-opacity:0"/>
			</radialGradient>
			<path style="opacity:0.5;fill:url(#SVGID_00000158010167669189936810000009231310676079652542_);" d="M203.3,242.6
				c2.6,1.7,6.1,0.8,7.9-1.9c1.7-2.7,1-6.3-1.6-8c-2.6-1.7-6.1-0.8-7.9,1.9C200,237.3,200.7,240.9,203.3,242.6z"/>
			<g>
				
					<image style="overflow:visible;" width="10" height="10" xlink:href="7FF8791E.png"  transform="matrix(1 0 0 1 197.5029 232.17)">
				</image>
			</g>
		</g>
	</g>
	<g>
		<g class="st8">
			<path class="st9" d="M160.9,144.9c-39.1-10.1-82.7-22-121.5-33.2C78.5,121.8,122.2,133.7,160.9,144.9L160.9,144.9z"/>
		</g>
		<g>
			<g>
				<path class="st9" d="M63.9,80.9c-8,15.5-16.5,30.7-25.5,45.5C46.3,111,54.8,95.8,63.9,80.9L63.9,80.9z"/>
			</g>
			<g>
				<path class="st9" d="M38.3,178.4c25.1,22.8,52.8,48.9,77.1,72.5C90.3,228.1,62.6,202.1,38.3,178.4L38.3,178.4z"/>
			</g>
			<g>
				<path class="st9" d="M38.3,175.5c25.1,19.4,52.8,41.7,77.1,62C90.4,218.1,62.7,195.8,38.3,175.5L38.3,175.5z"/>
			</g>
			<g>
				<path class="st9" d="M223.8,138.4c-19.6-6.7-39.1-13.9-58.3-21.8C185.2,123.3,204.6,130.6,223.8,138.4L223.8,138.4z"/>
			</g>
			<g>
				<path class="st9" d="M63.9,146.7c34.5-10.2,73.4-21,108.2-30.1C137.5,126.8,98.7,137.6,63.9,146.7L63.9,146.7z"/>
			</g>
			<g>
				<path class="st9" d="M223.8,179.9c-20.3,6.9-41.7,13.6-62.4,19.3C181.7,192.3,203.2,185.6,223.8,179.9L223.8,179.9z"/>
			</g>
			<g>
				<path class="st9" d="M105.7,237.5c37.6-17.2,80-36,118.1-52.1C186.2,202.6,143.8,221.4,105.7,237.5L105.7,237.5z"/>
			</g>
			<g>
				<path class="st9" d="M105.7,250.9c37.6-19.7,80-41.3,118.1-60C186.2,210.7,143.8,232.2,105.7,250.9L105.7,250.9z"/>
			</g>
			<g>
				<path class="st9" d="M110.2,139.1c-23.1,5.4-48.6,10.6-71.9,14.8C61.4,148.5,86.9,143.3,110.2,139.1L110.2,139.1z"/>
			</g>
			<g>
				<path class="st9" d="M102.5,139.6c38.9,4.6,82.6,10.5,121.3,16.3C184.9,151.3,141.2,145.4,102.5,139.6L102.5,139.6z"/>
			</g>
			<g>
				<path class="st9" d="M223.8,178.7c-39.8,11.5-84.6,23.7-124.7,34C138.9,201.3,183.7,189.1,223.8,178.7L223.8,178.7z"/>
			</g>
			<g>
				<path class="st9" d="M108.5,212.8c-22.9-12.8-47.8-27.4-70.2-41.2C61.2,184.3,86.1,199,108.5,212.8L108.5,212.8z"/>
			</g>
			<g>
				<path class="st9" d="M52,84.8c55.2,19.2,117,41.3,171.8,61.6C168.6,127.3,106.8,105.1,52,84.8L52,84.8z"/>
			</g>
			<g>
				<path class="st9" d="M161.4,159.7c20.5-0.2,41.9,0.3,62.4,1.3C203.3,161.2,181.9,160.8,161.4,159.7L161.4,159.7z"/>
			</g>
			<g>
				<path class="st9" d="M172,159.7c-42.8,1.3-90.9,2.2-133.7,2.3C81.1,160.7,129.2,159.9,172,159.7L172,159.7z"/>
			</g>
			<g>
				<path class="st9" d="M168.9,199.2c-42-10-88.9-21.9-130.6-33C80.3,176.2,127.2,188.1,168.9,199.2L168.9,199.2z"/>
			</g>
		</g>
		<g class="st8">
			<g>
				<path class="st9" d="M63.9,79.5c-8,15.5-16.5,30.7-25.5,45.5C46.3,109.5,54.8,94.4,63.9,79.5L63.9,79.5z"/>
			</g>
			<g>
				<path class="st9" d="M38.3,177c25.1,22.8,52.8,48.9,77.1,72.5C90.3,226.7,62.6,200.7,38.3,177L38.3,177z"/>
			</g>
			<g>
				<path class="st9" d="M38.3,174.1c25.1,19.4,52.8,41.7,77.1,62C90.4,216.7,62.7,194.4,38.3,174.1L38.3,174.1z"/>
			</g>
			<g>
				<path class="st9" d="M223.8,136.9c-19.6-6.7-39.1-13.9-58.3-21.8C185.2,121.9,204.6,129.1,223.8,136.9L223.8,136.9z"/>
			</g>
			<g>
				<path class="st9" d="M63.9,145.3c34.5-10.2,73.4-21,108.2-30.1C137.5,125.4,98.7,136.2,63.9,145.3L63.9,145.3z"/>
			</g>
			<g>
				<path class="st9" d="M223.8,178.4c-20.3,6.9-41.7,13.6-62.4,19.3C181.7,190.9,203.2,184.2,223.8,178.4L223.8,178.4z"/>
			</g>
			<g>
				<path class="st9" d="M105.7,236.1c37.6-17.2,80-36,118.1-52.1C186.2,201.2,143.8,219.9,105.7,236.1L105.7,236.1z"/>
			</g>
			<g>
				<path class="st9" d="M105.7,249.5c37.6-19.7,80-41.3,118.1-60C186.2,209.3,143.8,230.8,105.7,249.5L105.7,249.5z"/>
			</g>
			<g>
				<path class="st9" d="M110.2,137.7c-23.1,5.4-48.6,10.6-71.9,14.8C61.4,147.1,86.9,141.9,110.2,137.7L110.2,137.7z"/>
			</g>
			<g>
				<path class="st9" d="M102.5,138.2c38.9,4.6,82.6,10.5,121.3,16.3C184.9,149.9,141.2,144,102.5,138.2L102.5,138.2z"/>
			</g>
			<g>
				<path class="st9" d="M223.8,177.3c-39.8,11.5-84.6,23.7-124.7,34C138.9,199.9,183.7,187.6,223.8,177.3L223.8,177.3z"/>
			</g>
			<g>
				<path class="st9" d="M108.5,211.4c-22.9-12.8-47.8-27.4-70.2-41.2C61.2,182.9,86.1,197.5,108.5,211.4L108.5,211.4z"/>
			</g>
			<g>
				<path class="st9" d="M52,83.4c55.2,19.2,117,41.3,171.8,61.6C168.6,125.9,106.8,103.7,52,83.4L52,83.4z"/>
			</g>
			<g>
				<path class="st9" d="M161.4,158.3c20.5-0.2,41.9,0.3,62.4,1.3C203.3,159.8,181.9,159.3,161.4,158.3L161.4,158.3z"/>
			</g>
			<g>
				<path class="st9" d="M172,158.3c-42.8,1.3-90.9,2.2-133.7,2.3C81.1,159.3,129.2,158.5,172,158.3L172,158.3z"/>
			</g>
			<g>
				<path class="st9" d="M168.9,197.8c-42-10-88.9-21.9-130.6-33C80.3,174.8,127.2,186.6,168.9,197.8L168.9,197.8z"/>
			</g>
		</g>
		<g class="st8">
			<g>
				<path class="st9" d="M63.9,82c-8,15.5-16.5,30.7-25.5,45.5C46.3,112.1,54.8,96.9,63.9,82L63.9,82z"/>
			</g>
			<g>
				<path class="st9" d="M38.3,179.5c25.1,22.8,52.8,48.9,77.1,72.5C90.3,229.2,62.6,203.2,38.3,179.5L38.3,179.5z"/>
			</g>
			<g>
				<path class="st9" d="M38.3,176.6c25.1,19.4,52.8,41.7,77.1,62C90.4,219.2,62.7,196.9,38.3,176.6L38.3,176.6z"/>
			</g>
			<g>
				<path class="st9" d="M223.8,139.5c-19.6-6.7-39.1-13.9-58.3-21.8C185.2,124.4,204.6,131.6,223.8,139.5L223.8,139.5z"/>
			</g>
			<g>
				<path class="st9" d="M63.9,147.8c34.5-10.2,73.4-21,108.2-30.1C137.5,127.9,98.7,138.7,63.9,147.8L63.9,147.8z"/>
			</g>
			<g>
				<path class="st9" d="M223.8,181c-20.3,6.9-41.7,13.6-62.4,19.3C181.7,193.4,203.2,186.7,223.8,181L223.8,181z"/>
			</g>
			<g>
				<path class="st9" d="M105.7,238.6c37.6-17.2,80-36,118.1-52.1C186.2,203.7,143.8,222.4,105.7,238.6L105.7,238.6z"/>
			</g>
			<g>
				<path class="st9" d="M105.7,252c37.6-19.7,80-41.3,118.1-60C186.2,211.8,143.8,233.3,105.7,252L105.7,252z"/>
			</g>
			<g>
				<path class="st9" d="M110.2,140.2c-23.1,5.4-48.6,10.6-71.9,14.8C61.4,149.6,86.9,144.4,110.2,140.2L110.2,140.2z"/>
			</g>
			<g>
				<path class="st9" d="M102.5,140.7c38.9,4.6,82.6,10.5,121.3,16.3C184.9,152.4,141.2,146.5,102.5,140.7L102.5,140.7z"/>
			</g>
			<g>
				<path class="st9" d="M223.8,179.8c-39.8,11.5-84.6,23.7-124.7,34C138.9,202.4,183.7,190.2,223.8,179.8L223.8,179.8z"/>
			</g>
			<g>
				<path class="st9" d="M108.5,213.9c-22.9-12.8-47.8-27.4-70.2-41.2C61.2,185.4,86.1,200.1,108.5,213.9L108.5,213.9z"/>
			</g>
			<g>
				<path class="st9" d="M52,85.9c55.2,19.2,117,41.3,171.8,61.6C168.6,128.4,106.8,106.2,52,85.9L52,85.9z"/>
			</g>
			<g>
				<path class="st9" d="M161.4,160.8c20.5-0.2,41.9,0.3,62.4,1.3C203.3,162.3,181.9,161.9,161.4,160.8L161.4,160.8z"/>
			</g>
			<g>
				<path class="st9" d="M172,160.8c-42.8,1.3-90.9,2.2-133.7,2.3C81.1,161.8,129.2,161,172,160.8L172,160.8z"/>
			</g>
			<g>
				<path class="st9" d="M168.9,200.3c-42-10-88.9-21.9-130.6-33C80.3,177.3,127.2,189.2,168.9,200.3L168.9,200.3z"/>
			</g>
		</g>
		<g>
			<g>
				<path class="st9" d="M221.8,137.7c0.3,17.6,0.4,36.7,0.4,54.2c0,0,0,0.3,0,0.3s-0.2,0.1-0.2,0.1c-0.4,0.2-2,1-2.4,1.2
					c0-16.1,0.1-40.5,0.4-56.5c0,0,0,0,0,0s0,0,0,0S221.8,137.7,221.8,137.7L221.8,137.7z M221.8,137.7l-1.7-0.6l0,0
					c0.3,15.6,0.4,40,0.4,55.7c0,0-0.6-0.4-0.6-0.4l1.7-0.9c0,0-0.2,0.4-0.2,0.4c0-9,0-18,0.1-27
					C221.5,158.2,221.7,144.5,221.8,137.7L221.8,137.7z"/>
			</g>
			<g>
				<path class="st9" d="M220,137.1l-1.9,0.5c0.3,4.1,0.2,9.2,0.3,13.6c0.1,12.6,0.2,28.8-0.3,41c0,0,1.8,0.6,1.8,0.6l-1.9-0.5
					c-0.5-12.6-0.4-28.4-0.3-41.2c0.1-4.6,0.1-9.2,0.3-13.8c0,0,0.1,0,0.1,0C218.2,137.4,220,137.1,220,137.1L220,137.1z"/>
			</g>
		</g>
		<g>
			<path class="st9" d="M164.8,198.2c-0.2-19.8-0.4-59.7-0.4-79.5c0,0,0.6,0.4,0.6,0.4s-3.8,1.1-3.8,1.1l0.3-0.4
				c0,12.9-0.1,45.7-0.2,58.1c0,0-0.1,19.6-0.2,19.3C160.9,197.2,164.8,198.2,164.8,198.2L164.8,198.2z M164.8,198.2
				c0,0-3.8-0.9-3.9-0.9c0,0-0.2-19.4-0.2-19.4c-0.1-12.3-0.2-45.4-0.2-58.1c0,0,0-0.3,0-0.3s0.3-0.1,0.3-0.1
				c0.3-0.1,4.2-1.1,4.4-1.2C165.2,138.2,164.9,178.1,164.8,198.2L164.8,198.2z"/>
		</g>
		<g>
			<path class="st9" d="M164.8,118.6c0,0,3.7,1.1,3.7,1.1c0,0,0.2,19.3,0.2,19.3c0.1,12.3,0.2,45.3,0.2,58c0,0,0,0.3,0,0.3
				s-0.3,0.1-0.3,0.1c-0.3,0.2-4,1.2-4.3,1.3C164.3,178.6,164.6,138.8,164.8,118.6L164.8,118.6z M164.8,118.6
				c0.2,19.8,0.4,59.7,0.4,79.5c0,0-0.6-0.4-0.6-0.4s3.7-1.1,3.7-1.1L168,197c0-12.8,0.1-45.6,0.2-58c0,0,0.1-19.5,0.2-19.3
				C168.4,119.8,164.8,118.6,164.8,118.6L164.8,118.6z"/>
		</g>
		<g>
			<path class="st9" d="M146.8,145.8c0.2,16.1,0.4,38.4,0.4,54.3c-0.6,0.2-3.1,0.8-3.7,1c0,0,0-0.6,0-0.6c0-15.6,0.1-39.6,0.4-55
				c0,0,0,0,0,0l0,0L146.8,145.8L146.8,145.8z M146.8,145.8l-2.8-0.3c0,0,0,0,0,0l0.2,13.8c0.1,8.7,0.2,32.2,0.2,41.3
				c0,0-0.6-0.4-0.6-0.4s2.8-0.8,2.8-0.8l-0.3,0.4C146.3,184.2,146.6,161.6,146.8,145.8L146.8,145.8z"/>
		</g>
		<g>
			<path class="st9" d="M144,145.5l-2.8,0.5c0.4,3.9,0.2,9,0.4,13.3c0,12.3,0.2,28.3-0.3,40.1c0,0,2.8,1.1,2.8,1.1l-2.9-0.9l-0.1,0
				c-0.4-12.4-0.4-27.8-0.3-40.3c0.1-4.5,0.1-9,0.3-13.5c0,0,0.1,0,0.1,0L144,145.5L144,145.5z"/>
		</g>
		<g>
			<path class="st9" d="M105.5,211c-0.2-21-0.4-50.3-0.4-71c0,0,0-0.5,0-0.5s0.5,0.1,0.5,0.1c0.4,0.1,4.1,0.5,4.3,0.5
				c0,0,0,0.4,0,0.4c-0.1,20.5-0.1,49.2-0.4,69.4c0,0,0,0,0,0c0,0,0,0,0,0L105.5,211L105.5,211z M105.5,211c0,0,3.9-1.1,3.9-1.1
				c-0.3-11.3-0.2-23.2-0.3-34.7c0,0-0.1-34.7-0.1-34.7c0,0,0.4,0.4,0.4,0.4s-3.9-0.5-3.9-0.5l0.5-0.4
				C105.9,160.5,105.7,190.2,105.5,211L105.5,211z"/>
		</g>
		<g>
			<path class="st9" d="M105.5,140l-3.6,0.8c0,0,0,0,0,0c0.3,19.7,0.4,48.1,0.4,68.1c0,0-0.2-0.4-0.2-0.4s3.6,2.1,3.6,2.1L105,211
				C105.1,193.3,105.3,157.7,105.5,140L105.5,140z M105.5,140c0.2,17.7,0.4,53.3,0.4,71c0,0,0,0.8,0,0.8c-0.3-0.1-3.8-2.3-4.3-2.5
				c0,0-0.2-0.1-0.2-0.1s0-0.3,0-0.3c0.1-20.1,0.1-48.3,0.4-68.1c0,0,0,0,0,0s0,0,0,0L105.5,140L105.5,140z"/>
		</g>
		<g>
			<path class="st9" d="M60,87.7c0.2,28.2,0.4,83.9,0.5,112.2c-0.4-0.4-2.4-2.3-2.9-2.7c-0.4-29.8,0.1-76,0.3-105.6
				C57.8,91.5,60,87.7,60,87.7L60,87.7z M60,87.7c0,0-2.1,3.9-2.1,3.8c0.1,28.8,0.7,77.2,0.3,105c0,0,2.1,2,2.1,2s-0.8,0.3-0.8,0.3
				C59.6,171.1,59.9,115.4,60,87.7L60,87.7z"/>
		</g>
		<g>
			<path class="st9" d="M60,87.7l3.4,1.2c0,0,0,0,0,0s0,0,0,0c0.3,30.5,0.4,78.6,0.4,109.5c0,0,0,0.4,0,0.4s-0.4,0.1-0.4,0.1
				s-3.3,0.5-3.3,0.5s-0.5,0.1-0.5,0.1l0-0.5C59.6,171.1,59.8,115.4,60,87.7L60,87.7z M60,87.7c0.2,27.7,0.4,83.4,0.4,111.1
				c0,0-0.5-0.4-0.5-0.4l3.3-0.5l-0.4,0.4l0.1-54.7c0-13.6,0.2-41.1,0.3-54.7C63.5,89,60,87.7,60,87.7L60,87.7z"/>
		</g>
		<g>
			<path class="st9" d="M41.6,120.6c0.2,19.2,0.7,42.7,0.3,60.6c0,0,1.3,1.2,1.3,1.2l-0.7,0.3c0-18.3,0.1-46.3,0.4-64.4
				c0,0,0.1,0,0.1,0S41.6,120.6,41.6,120.6L41.6,120.6z M41.6,120.6l1.3-2.3c0,0,0.1-0.1,0.1-0.1l0,0.1c0.3,18.4,0.4,46.8,0.4,65.4
				c-0.4-0.4-1.6-1.5-2-1.9C40.9,162.2,41.4,140.4,41.6,120.6L41.6,120.6z"/>
		</g>
		<g>
			<path class="st9" d="M42.9,118.3l2,0.6c0,0,0,0,0,0c0.1,5.3,0.2,10.7,0.3,16c0.1,14.8,0.2,33.3-0.4,47.8c0,0-2-0.1-2-0.1l2-0.1
				c-0.6-14.3-0.4-33.1-0.4-47.7c0.1-5.2,0.1-10.9,0.3-15.9C44.9,119.1,42.9,118.3,42.9,118.3L42.9,118.3z"/>
		</g>
		<g>
			<g>
				<path class="st9" d="M121.3,109.7c0.2,20.3,0.4,60.8,0.4,81.1c0,0-0.4,0.1-0.4,0.1l-2.9,0.5c0,0-0.5,0.1-0.5,0.1l0-0.5
					c0-23.3,0.1-59.2,0.4-82.3c0,0,0,0,0,0l0,0L121.3,109.7L121.3,109.7z M121.3,109.7c0,0-2.9-1-2.9-1s0,0,0,0
					c0.3,23,0.4,59,0.4,82.3c0,0-0.5-0.4-0.5-0.4l2.9-0.5c0,0-0.4,0.4-0.4,0.4C120.9,170.3,121.1,129.8,121.3,109.7L121.3,109.7z"/>
			</g>
			<g>
				<path class="st9" d="M118.4,108.7c0,0-3,1.7-2.9,1.6c0.3,22.1,0.4,56.9,0.4,79.3c0,0-0.3-0.4-0.3-0.4l2.9,1.4
					c0,0-0.6,0.4-0.6,0.4C118,170.4,118.2,129.2,118.4,108.7L118.4,108.7z M118.4,108.7c0.2,20.5,0.4,61.8,0.4,82.3c0,0,0,0.7,0,0.7
					l-0.6-0.3l-2.9-1.4l-0.3-0.1c0,0,0-0.3,0-0.3c0-22.5,0.1-57.1,0.4-79.3c0,0,0,0,0,0s0,0,0,0S118.4,108.7,118.4,108.7
					L118.4,108.7z"/>
			</g>
		</g>
		<g>
			<path class="st9" d="M57.2,199.2c53.3-7.9,113.1-16.2,166.6-22.9C170.5,184.2,110.7,192.5,57.2,199.2L57.2,199.2z"/>
		</g>
		<g>
			<path class="st9" d="M44.9,194.5c9.2-1.2,18.4-2.3,27.6-3.3c0,0-0.4,0.4-0.4,0.4c0-3.7-0.1-7.5,0-11.2c0-10.4,0.1-23.3,0.4-33.6
				c0.3,10.3,0.4,23.2,0.4,33.6c0,3.9,0,7.7,0,11.6C63.6,192.9,54.2,193.8,44.9,194.5L44.9,194.5z"/>
		</g>
		<g>
			<path class="st9" d="M76,100.1c10.5,2.8,20.8,6.3,30.9,10.3C96.4,107.5,86,104.1,76,100.1L76,100.1z"/>
		</g>
		<g>
			<path class="st9" d="M104.9,108.2c0.6,10.6,0.6,21.2,0,31.8C104.3,129.4,104.3,118.8,104.9,108.2L104.9,108.2z"/>
		</g>
		<g>
			<path class="st9" d="M104.9,109.7c-2.1,1.1-4.2,2.1-6.3,3.1c-3.6-1-7.2-2.1-10.7-3.2c-3.5-1.1-7-2.4-10.4-3.7
				c7.2,1.7,14.3,3.9,21.2,6.3c0,0-0.2,0-0.2,0C100.6,111.3,102.7,110.5,104.9,109.7L104.9,109.7z"/>
		</g>
		<g>
			<path class="st9" d="M98.6,112.5c0.6,9.5,0.6,19.1,0,28.6C98,131.6,98,122,98.6,112.5L98.6,112.5z"/>
		</g>
		<g>
			<path class="st9" d="M96.4,141.9c-0.4-9.3-0.5-18.6-0.4-27.9c0,0,0.3,0.4,0.3,0.4c-2.8-0.9-6.7-2.1-9.4-3c-3.1-1-6.3-2.1-9.4-3.2
				c4.8,1.2,9.5,2.6,14.3,4c0,0,4.7,1.4,4.7,1.4l0.3,0.1C96.8,123.1,96.7,132.5,96.4,141.9L96.4,141.9z"/>
		</g>
		<g>
			<path class="st9" d="M96.4,114c-0.5,0.4-1,0.7-1.5,1.1c0,0-0.1,0-0.1,0c-5.9-1.4-11.7-3.1-17.3-5.4c5.9,1.2,11.7,3,17.4,5.1
				c0,0-0.1,0-0.1,0C95.2,114.6,95.8,114.3,96.4,114L96.4,114z"/>
		</g>
		<g>
			<path class="st9" d="M94.8,115c0.6,9.1,0.6,18.2,0,27.3C94.2,133.2,94.2,124,94.8,115L94.8,115z"/>
		</g>
		<g>
			<path class="st9" d="M84.8,110.5c0.6,11.3,0.6,22.5,0,33.8C84.2,133,84.2,121.8,84.8,110.5L84.8,110.5z"/>
		</g>
		<g>
			<path class="st9" d="M83.4,144.6c-0.4-11.3-0.4-23.2-0.4-34.5c0,0,0.8,0.3,0.8,0.3s-1.2,1.1-1.2,1.1s0.1-0.3,0.1-0.3
				c0,11.2-0.1,22.5-0.4,33.7c-0.4-11.2-0.4-22.5-0.4-33.7c0-0.1,0.1-0.2,0.1-0.3l1.2-1.1c0.3-0.3,0.8,0,0.8,0.3
				C83.8,121.4,83.7,133.3,83.4,144.6L83.4,144.6z"/>
		</g>
		<g>
			<path class="st9" d="M55,110.6c0.1,9.8,0.4,19.8,0.4,29.6c0,0-0.2,0.1-0.2,0.1l-8.2,4.2l-0.7,0.3l0-0.7c0-6.8,0-16.2,0.2-22.9
				C49.4,117.7,52.3,114.1,55,110.6L55,110.6z M55,110.6c-2.7,3.5-5.7,8.1-7.9,10.8c0.1,6.6,0.1,16.1,0.2,22.8c0,0-0.6-0.4-0.6-0.4
				l8.2-4.1l-0.2,0.4C54.6,130.2,54.9,120.6,55,110.6L55,110.6z"/>
		</g>
		<g>
			<path class="st9" d="M46.8,121.4c0.8-0.2,1.6-0.2,2.3-0.3l-0.2,0.1c0.9-1.1,1.8-2.2,2.9-3.1c1-1,2.1-1.9,3.3-2.8
				c-0.8,1.2-1.7,2.3-2.6,3.4c-1,1.1-2,2.1-3.1,3.1C48.4,121.7,47.6,121.6,46.8,121.4L46.8,121.4z"/>
		</g>
		<g>
			<path class="st9" d="M49.1,121.4c0.6,7.2,0.6,14.3,0,21.5C48.5,135.8,48.5,128.6,49.1,121.4L49.1,121.4z"/>
		</g>
		<g>
			<path class="st9" d="M49.9,142.6c-0.5-6.9-0.5-13.9-0.4-20.8c1.8-1.8,3.6-3.5,5.4-5.2c-1.6,1.9-3.2,3.8-4.8,5.6l0.1-0.2
				C50.4,128.8,50.4,135.7,49.9,142.6L49.9,142.6z"/>
		</g>
		<g>
			<path class="st9" d="M49.9,122c0.2-0.1,0.8-0.2,0.5-0.1c1.2-1.7,2.7-3.2,4.6-4.2c-1.1,1.8-2.6,3.3-4.3,4.4c0,0-0.1,0.1-0.1,0.1
				C50.3,122.1,50.1,122,49.9,122L49.9,122z"/>
		</g>
		<g>
			<path class="st9" d="M50.5,122c0.6,6.8,0.6,13.6,0,20.3C49.9,135.5,49.9,128.7,50.5,122L50.5,122z"/>
		</g>
		<g>
			<path class="st10" d="M72.5,191.6"/>
		</g>
		<g>
			<path class="st9" d="M113.1,209.1c-0.1-15-0.4-44.7-0.4-59.7c0,0,0.4,0,0.4,0c0,0,25.9,2.7,25.9,2.7l0.4,0l0,0.4l-0.1,49.4l0,0.6
				c0,0-0.5-0.2-0.5-0.2s-6.6-2.7-6.6-2.7s-0.2-0.1-0.2-0.1l0-0.2c0,0,0.1-23.7,0.1-23.7l0.2-23.7c0.1,11.8,0.3,35.6,0.3,47.4
				c0,0-0.2-0.3-0.2-0.3s6.6,2.6,6.6,2.6s-0.5,0.4-0.5,0.4l-0.1-49.4l0.4,0.4l-25.8-2.7c0,0,0.4-0.4,0.4-0.4
				C113.5,164.6,113.3,194.3,113.1,209.1L113.1,209.1z"/>
		</g>
		<g>
			<path class="st9" d="M132.3,199.2c-6.2,2.2-12.7,3.9-19.2,5C119.4,201.9,125.8,200.3,132.3,199.2L132.3,199.2z"/>
		</g>
		<g>
			<path class="st9" d="M123.7,156.5c2,0.1,4.7,0.1,6.8,0.3c0.1,3.6,0.2,8.7,0.2,12.3c0,0,0,0.5,0,0.5l-0.5,0c0,0-6.5-0.1-6.5-0.1
				l-0.4,0C123.3,165.2,123.5,160.8,123.7,156.5L123.7,156.5z M123.7,156.5c0.1,3.7,0.4,9,0.4,12.6c0,0-0.4-0.4-0.4-0.4l6.5-0.1
				l-0.4,0.4c0-3.6,0.1-8.5,0.2-12c0,0,0.2,0.3,0.2,0.3C128.3,157.1,125.6,156.8,123.7,156.5L123.7,156.5z"/>
		</g>
		<g>
			<path class="st9" d="M122.3,156.5c0.1,3.9,0.4,9.1,0.4,13c0,0-0.4,0-0.4,0l-8,0.1l-0.5,0l0-0.5c0-4,0-9.5,0.2-13.5
				C116.8,155.9,119.6,156.2,122.3,156.5L122.3,156.5z M122.3,156.5c-2.8-0.1-5.4-0.2-8-0.3l0.3-0.3c0.1,3.8,0.1,9.3,0.2,13.2
				c0,0-0.4-0.4-0.4-0.4l8,0.1c0,0-0.4,0.4-0.4,0.4C122,165.5,122.1,160.2,122.3,156.5L122.3,156.5z"/>
		</g>
		<g>
			<path class="st9" d="M130.2,170.7c-2.3,0.1-4.4,0.2-6.5,0.3l0.3-0.3c0.1,3.3,0.1,8.2,0.2,11.6c0,0-0.5-0.4-0.5-0.4l6.5-0.4
				l-0.4,0.4C129.8,178.6,130.1,173.9,130.2,170.7L130.2,170.7z M130.2,170.7c0.1,3.5,0.4,8.1,0.4,11.5c0,0-0.4,0-0.4,0l-6.5,0.5
				l-0.5,0l0-0.5c0-3.5,0-8.4,0.2-11.9C125.7,170.4,128,170.6,130.2,170.7L130.2,170.7z"/>
		</g>
		<g>
			<path class="st9" d="M122.3,170.7c0.1,2.9,0.3,8.7,0.4,11.6c0,0,0,0.4,0,0.4s-0.4,0-0.4,0l-8,0.5l-0.5,0l0-0.5
				c0-4.1,0-8.1,0.2-12.2C116.5,170.5,119.8,170.6,122.3,170.7L122.3,170.7z M122.3,170.7c-2.3,0.2-5.7,0.4-8,0.5
				c0,0,0.3-0.3,0.3-0.3c0.1,4,0.1,7.9,0.1,11.9l-0.5-0.4c0,0,8-0.4,8-0.4l-0.4,0.4C122,179.4,122.2,173.5,122.3,170.7L122.3,170.7z
				"/>
		</g>
		<g>
			<path class="st9" d="M97.9,149.8c0.1,3.5,0.3,8.1,0.3,11.5c-3.8,0.1-7.7,0.3-11.5,0.3c0,0-11.3,0.2-11.3,0.2s-0.5,0-0.5,0l0-0.5
				c0,0,0-8.8,0-8.8l0-0.4l0.3,0C81.7,151.4,91.3,150.5,97.9,149.8L97.9,149.8z M97.9,149.8c-6.5,1-16.1,2.4-22.5,3.2
				c0,0,0.4-0.4,0.4-0.4l0,8.8l-0.5-0.4l11.3-0.2c3.8-0.1,7.5-0.1,11.3-0.1c0,0-0.3,0.3-0.3,0.3C97.6,157.8,97.8,153.1,97.9,149.8
				L97.9,149.8z"/>
		</g>
		<g>
			<path class="st9" d="M77.8,161.4c-0.6-3-0.6-6.1,0-9.1C78.4,155.3,78.4,158.4,77.8,161.4L77.8,161.4z"/>
		</g>
		<g>
			<path class="st9" d="M87.4,151.1c0.6,3.4,0.6,6.7,0,10.1C86.7,157.9,86.7,154.5,87.4,151.1L87.4,151.1z"/>
		</g>
		<g>
			<path class="st9" d="M85.5,151.3c0.6,3.3,0.6,6.6,0,9.9C84.9,157.9,84.9,154.6,85.5,151.3L85.5,151.3z"/>
		</g>
		<g>
			<path class="st9" d="M88.7,151.1c0.6,3.4,0.6,6.7,0,10.1C88.1,157.9,88.1,154.5,88.7,151.1L88.7,151.1z"/>
		</g>
		<g>
			<path class="st9" d="M55,155.1c0.1,2.1,0.3,4.9,0.3,7c-2.8,0.2-5.7,0.2-8.5,0.3c0,0-0.5,0-0.5,0s0-0.5,0-0.5c0-2,0-4,0.1-6
				c0,0,0.3,0,0.3,0C48.8,155.7,52.9,155.3,55,155.1L55,155.1z M55,155.1c-2,0.4-6.1,1.2-8.2,1.5c0,0,0.3-0.4,0.3-0.4
				c0,1.9,0.1,3.8,0.1,5.7l-0.5-0.4c2.7,0,5.5-0.1,8.2,0l-0.3,0.3C54.7,159.9,54.9,157,55,155.1L55,155.1z"/>
		</g>
		<g>
			<path class="st9" d="M48,156.1c0.6,1.9,0.6,3.9,0,5.8C47.4,160,47.4,158,48,156.1L48,156.1z"/>
		</g>
		<g>
			<path class="st9" d="M50.9,155.7c0.6,2,0.6,4.1,0,6.2C50.3,159.8,50.3,157.8,50.9,155.7L50.9,155.7z"/>
		</g>
		<g>
			<path class="st9" d="M52,155.6c0.6,2.1,0.6,4.2,0,6.2C51.4,159.8,51.4,157.7,52,155.6L52,155.6z"/>
		</g>
		<g>
			<path class="st9" d="M52.7,155.4c0.6,2.1,0.6,4.3,0,6.4C52.1,159.7,52.1,157.6,52.7,155.4L52.7,155.4z"/>
		</g>
		<g>
			<path class="st9" d="M221.8,136.4c0,0.1,0.2,49.9,0.2,50c-0.3,0.1-109.7,48.6-110,48.7c-0.2,0.1-52-41.9-52.2-41.9
				c0,0-0.8-0.7-0.8-0.7c-0.7,0.1,13.6-1.4,13.5-1.4c0,0,0.1,0,0.1,0s0.1,0.1,0.1,0.1l33,19.4c0,0-0.6,0.3-0.6,0.3
				c0.1-0.4,0-71,0.1-71.3c0,0,0.3,0,0.3,0s52.9,7.2,52.9,7.2s0.2,0,0.2,0s0,0.2,0,0.2s-0.2,49.4-0.2,49.4c-0.1,0.1-0.3-50.3,0-49.3
				c0,0-53-7-53-7l0.3-0.3l0.1,71c0,0,0,0.7,0,0.7s-0.6-0.3-0.6-0.3l-33-19.4c0,0,0.3,0.1,0.3,0.1s-12.5,1.3-12.5,1.3
				s0.2-0.8,0.2-0.8c0-0.1,53,42.5,51.5,41.8c-0.1,0,110.4-48.6,109.7-48.1C221.6,186.3,221.8,136.4,221.8,136.4L221.8,136.4z"/>
		</g>
		<g>
			<path class="st9" d="M60,84.8c0.6,21.2,0.6,43.4,0,64.6C59.4,128.2,59.4,106,60,84.8L60,84.8z"/>
		</g>
		<g>
			<path class="st9" d="M168.3,117.6c0.2,13.6,0.4,28.6,0.4,42.2c0,0,0,0.4,0,0.4c-0.1,0-3.8,0-4,0c0,0,0.4-0.4,0.4-0.4
				c0,6.4,0,12.8,0,19.1c0,6.5,0,13.1-0.1,19.6c0,0-0.4-0.1-0.4-0.1l-6.3-1.7c0,0,0.1,0,0.1,0c-6.5,1.7-13,3.4-19.5,5
				c6.5-1.9,12.9-3.8,19.4-5.6c0.1,0,0.1,0,0.1,0c0,0,6.3,1.5,6.3,1.5s-0.4,0.3-0.4,0.3c-0.1-6.4-0.1-12.8-0.1-19.1
				c0-6.4,0-12.8,0-19.1c0,0,0-0.4,0-0.4c0,0,0.4,0,0.4,0s3.6,0,3.6,0s-0.4,0.4-0.4,0.4C167.9,146.2,168.1,131.3,168.3,117.6
				L168.3,117.6z"/>
		</g>
		<g>
			<path class="st9" d="M204.6,185.8l13.6,1.7c0,0-0.2,0.2-0.2,0.2c-0.1-6.7-0.2-20.1-0.2-26.7c0,0,0.4,0.4,0.4,0.4l-13.4-0.3
				l0.4-0.4c0,8.5-0.2,17-0.3,25.5c-13.4,4.1-26.8,8.1-40.2,12c13.2-4.3,26.4-8.6,39.7-12.7c0,0-0.3,0.4-0.3,0.4
				c0.1-8.4,0.1-16.8,0.2-25.2c0,0,0-0.4,0-0.4s0.4,0,0.4,0l13.3,0.4c0,0,0.4,0,0.4,0l0,0.4c0,6.7-0.1,20.1-0.2,26.7
				c0,0,0,0.2,0,0.2s-0.2,0-0.2,0C218.1,188,204.6,185.8,204.6,185.8L204.6,185.8z"/>
		</g>
		<g>
			<path class="st9" d="M221.8,186.3c0,0,0.1,5.7,0.1,5.7s0,0,0,0c0,0,0,0,0,0c-35.7,18.4-74.3,38.8-109.9,55.7c0,0,0.2-13,0.2-13
				s0.2,13,0.2,13c34.5-18.7,73.7-37.9,109.5-55.8C221.7,192.2,221.8,186.3,221.8,186.3L221.8,186.3z"/>
		</g>
		<g>
			<path class="st9" d="M165.5,239.2c0,1.2,1.1,1.9,2,2.5c5,2.4,11,2.1,16.2,0.8c6.2-1.7,6.3-4.9,0-6.7c-5.2-1.3-11.3-1.5-16.2,0.8
				C166.6,237.3,165.6,238.1,165.5,239.2L165.5,239.2z M165.5,239.2c0.3-2.3,3.2-3.1,5.1-3.8c4.3-1.2,9-1.3,13.4-0.3
				c7.2,1.7,7.2,6.5,0,8.2c-4.4,1-9,0.8-13.3-0.3C168.7,242.4,165.9,241.6,165.5,239.2L165.5,239.2z"/>
		</g>
		<g>
			<path class="st9" d="M185.6,225.5c0.5,3,10.4,2.5,11.3,0C196,223.1,186.1,222.5,185.6,225.5L185.6,225.5z M185.6,225.5
				c0.6-3.1,11.9-3.6,12.2,0C197.5,229.1,186.2,228.6,185.6,225.5L185.6,225.5z"/>
		</g>
		<g>
			<path class="st9" d="M49.1,214.7c0.5,3,10.4,2.5,11.3,0C59.5,212.2,49.7,211.7,49.1,214.7L49.1,214.7z M49.1,214.7
				c0.6-3.1,11.9-3.6,12.2,0C61,218.3,49.7,217.8,49.1,214.7L49.1,214.7z"/>
		</g>
		<g>
			<path class="st9" d="M59.7,225.5c0.5,3,10.4,2.5,11.3,0C70.1,223.1,60.2,222.5,59.7,225.5L59.7,225.5z M59.7,225.5
				c0.6-3.1,11.9-3.6,12.2,0C71.6,229.1,60.3,228.6,59.7,225.5L59.7,225.5z"/>
		</g>
		<g>
			<path class="st9" d="M72,239.2c0.5,3,10.4,2.5,11.3,0C82.4,236.8,72.5,236.2,72,239.2L72,239.2z M72,239.2
				c0.6-3.1,11.9-3.6,12.2,0C83.8,242.8,72.6,242.3,72,239.2L72,239.2z"/>
		</g>
		<g>
			<path class="st9" d="M112,247.7c-17.7-16.5-53.1-49.5-70.7-66.1c0.1-0.4-0.2-60.8,0-61.2c0,0,18.4-32.9,18.4-32.9
				s0.2-0.3,0.2-0.3c0.3,0.1,61.3,22.1,61.6,22.2c0,0,0.2,0.1,0.2,0.1s0,0.2,0,0.2s0,21,0,21s-0.4-0.3-0.4-0.3c0,0,47.1-13,47.1-13
				c0.1,0,53.4,20.3,53.4,20.3c0,0-53.5-19.9-53.5-19.9c0.8-0.1-47.1,13.2-46.9,13.2c0,0-0.4,0.1-0.4,0.1s0-0.4,0-0.4s0-21,0-21
				c1.5,1.2-61.4-21.8-61.1-21.6c0,0,0.5-0.2,0.5-0.2s-18.5,32.9-18.5,32.9c0-1,0,60.9,0,60.7C58.7,196.9,94.8,231.5,112,247.7
				L112,247.7z"/>
		</g>
		<g>
			<path class="st9" d="M121.3,130.7c0.6,3.8,0.6,7.6,0,11.4C120.7,138.3,120.7,134.5,121.3,130.7L121.3,130.7z"/>
		</g>
		<g>
			<path class="st9" d="M60,192.9c-0.6-14.5-0.6-29,0-43.5C60.6,163.9,60.6,178.4,60,192.9L60,192.9z"/>
		</g>
		<g>
			<path class="st9" d="M105.5,140c-10.9,2.6-21.8,4.9-32.7,7.2c0,0,0.3-0.4,0.3-0.4c0,14.9-0.2,29.9-0.6,44.8
				c-0.3-14.9-0.3-29.9-0.2-44.8c0,0,0-0.3,0-0.3c0,0,0.3-0.1,0.3-0.1C83.5,144.2,94.5,142,105.5,140L105.5,140z"/>
		</g>
		<g>
			<path class="st9" d="M158,127.7c0,0,0.2,12.3,0.2,12.3c0,0,0,0.2,0,0.2c-5.6,1.1-11.1,2.3-16.7,3.4c0,0-16.5,3.3-16.5,3.3
				l-0.5,0.1c0,0,0-0.5,0-0.5l0-10.3l0-0.3l0.3-0.1l8.3-2.1C138.5,132.4,152.5,129,158,127.7L158,127.7z M158,127.7
				c-5.5,1.5-19.5,5.3-24.7,6.7c0,0-8.2,2.1-8.2,2.1s0.3-0.4,0.3-0.4s0,10.3,0,10.3c0,0-0.5-0.4-0.5-0.4l16.5-3.2
				c5.5-1.1,11-2,16.5-3.1l-0.2,0.2L158,127.7L158,127.7z"/>
		</g>
		<g>
			<path class="st9" d="M125,136.2c1,0.1,2,0.2,3,0.4c0,0,0,0.3,0,0.3c0.1,3.1,0.1,6.1-0.5,9.1c-0.3-1.5-0.3-3-0.4-4.6
				c0-1.5,0-3,0.2-4.6l0.3,0.3C126.7,136.9,125.9,136.6,125,136.2L125,136.2z"/>
		</g>
		<g>
			<path class="st9" d="M127.7,136.9c10-3.1,20.1-5.6,30.3-7.5C148,132.4,137.9,135,127.7,136.9L127.7,136.9z"/>
		</g>
		<g>
			<path class="st9" d="M128.6,145.8c-0.2-2.9-0.3-5.7-0.3-8.6c0,0,0.2-0.1,0.2-0.1c9.8-2.6,19.6-5,29.5-6.9
				c-7.3,2.2-14.6,4.1-22,5.8c-2.5,0.6-4.9,1.2-7.4,1.7l0.2-0.3C128.8,140.2,128.7,143,128.6,145.8L128.6,145.8z"/>
		</g>
		<g>
			<path class="st9" d="M128.6,137.4c0.3-0.1,0.6-0.1,0.9-0.2c0.3,1.4,0.3,2.9,0.3,4.3c0,1.4-0.1,2.7-0.4,4.1
				c-0.6-2.7-0.6-5.5-0.2-8.2c0,0,0.2,0.2,0.2,0.2C129.1,137.6,128.8,137.5,128.6,137.4L128.6,137.4z"/>
		</g>
		<g>
			<path class="st9" d="M135.4,135.8c0.6,2.9,0.6,5.8,0,8.7C134.8,141.6,134.8,138.7,135.4,135.8L135.4,135.8z"/>
		</g>
		<g>
			<path class="st9" d="M136.5,135.5c0.6,2.9,0.6,5.8,0,8.7C135.8,141.3,135.8,138.4,136.5,135.5L136.5,135.5z"/>
		</g>
		<g>
			<path class="st9" d="M137.2,135.5c0.6,2.9,0.6,5.8,0,8.6C136.5,141.3,136.5,138.4,137.2,135.5L137.2,135.5z"/>
		</g>
		<g>
			<path class="st9" d="M146.8,133.1c0.6,3,0.6,6.1,0,9.1C146.1,139.2,146.2,136.1,146.8,133.1L146.8,133.1z"/>
		</g>
		<g>
			<path class="st9" d="M148.2,142c-0.6-3.1-0.6-6.2,0-9.3C148.8,135.7,148.8,138.9,148.2,142L148.2,142z"/>
		</g>
		<g>
			<path class="st9" d="M149,132.4c0.6,3.1,0.6,6.2,0,9.3C148.4,138.7,148.4,135.5,149,132.4L149,132.4z"/>
		</g>
		<g>
			<path class="st9" d="M168.3,159.9c12.2-0.4,24.4-0.1,36.5,0.7C192.7,161,180.5,160.7,168.3,159.9L168.3,159.9z"/>
		</g>
		<g>
			<path class="st9" d="M178,130.1c0.6,6.6,0.6,13.1,0,19.7C177.4,143.2,177.4,136.6,178,130.1L178,130.1z"/>
		</g>
		<g>
			<path class="st9" d="M192.6,135.3c0.6,5.5,0.6,11,0,16.4C192,146.3,192,140.8,192.6,135.3L192.6,135.3z"/>
		</g>
		<g>
			<path class="st9" d="M201.5,138.5c0.6,4.8,0.6,9.6,0,14.4C200.9,148.1,200.9,143.3,201.5,138.5L201.5,138.5z"/>
		</g>
		<g>
			<path class="st9" d="M213.3,142.7c0.6,4,0.6,8.1,0,12.2C212.7,150.8,212.7,146.8,213.3,142.7L213.3,142.7z"/>
		</g>
		<g>
			<path class="st9" d="M213.3,142.7c-0.6,0.2-1.1,0.3-1.7,0.5l0.2-0.2c0.3,3.8,0.3,7.6-0.2,11.3c-0.6-3.8-0.6-7.7-0.2-11.5
				C212,142.7,212.6,142.7,213.3,142.7L213.3,142.7z"/>
		</g>
		<g>
			<path class="st9" d="M211.5,143c-3.5-0.5-6.9-1.6-10-3.2C205,140.2,208.4,141.3,211.5,143L211.5,143z"/>
		</g>
		<g>
			<path class="st9" d="M192.6,135.3c-0.8,0.2-1.6,0.3-2.3,0.5l0.2-0.2c0.3,5.3,0.3,10.5-0.2,15.8c-0.6-5.3-0.6-10.5-0.2-15.8
				c0,0,0-0.2,0-0.2C190.9,135.3,191.8,135.3,192.6,135.3L192.6,135.3z"/>
		</g>
		<g>
			<path class="st9" d="M190.2,135.6c-4.3-0.8-8.4-2.2-12.2-4.2C182.3,132.2,186.4,133.6,190.2,135.6L190.2,135.6z"/>
		</g>
		<g>
			<path class="st9" d="M189.5,151.3c-0.4-5.1-0.5-10.2-0.4-15.3c0,0,0.3,0.4,0.3,0.4c-1.9-0.7-3.8-1.3-5.7-2
				c-1.9-0.7-3.8-1.4-5.6-2.2c2,0.5,3.9,1,5.8,1.6c2,0.6,4.1,1.2,6.1,1.9C190,140.9,189.9,146.1,189.5,151.3L189.5,151.3z"/>
		</g>
		<g>
			<path class="st9" d="M183,133.8c0.6,5.5,0.6,11.1,0,16.6C182.3,144.9,182.3,139.4,183,133.8L183,133.8z"/>
		</g>
		<g>
			<path class="st9" d="M182,150.3c-0.3-5.6-0.4-11.2-0.4-16.8c0,0,0.6,0.4,0.6,0.4l-0.7,0.3l0.3-0.4c0,2.7,0,5.5-0.1,8.2
				c-0.1,2.7-0.2,5.5-0.3,8.2c-0.3-5.4-0.4-10.9-0.4-16.4c0,0,0-0.3,0-0.3l0.3-0.1c0.3-0.2,1-0.5,1.3-0.6
				C182.5,138.6,182.4,144.5,182,150.3L182,150.3z"/>
		</g>
		<g>
			<path class="st9" d="M189.5,136l-0.5,0.3l0-0.1c0.5,5,0.5,10-0.1,15c-0.6-5-0.6-10-0.1-15c0,0,0,0,0,0L189.5,136L189.5,136z"/>
		</g>
		<g>
			<path class="st9" d="M189,136.3c-2.2-0.1-4.2-0.7-6-1.9C185.1,134.4,187.2,135,189,136.3L189,136.3z"/>
		</g>
		<g>
			<path class="st9" d="M181.3,133.8c-1.3,0.2-2.4-0.2-3.3-1.1C179.3,132.5,180.4,132.9,181.3,133.8L181.3,133.8z"/>
		</g>
		<g>
			<path class="st9" d="M210.9,154.2c-0.4-3.6-0.4-7.2-0.4-10.9l0.3,0.4c-3.1-1-6.2-2-9.3-3.2c3.3,0.6,6.6,1.5,9.9,2.5
				C211.4,146.7,211.3,150.5,210.9,154.2L210.9,154.2z"/>
		</g>
		<g>
			<path class="st9" d="M206.2,141.9c0.6,3.9,0.6,7.8,0,11.6C205.6,149.7,205.6,145.8,206.2,141.9L206.2,141.9z"/>
		</g>
		<g>
			<path class="st9" d="M205.6,153.5c-0.4-3.9-0.4-7.8-0.4-11.7l0.6,0.4l-0.5,0.2l0.3-0.4c0,3.8-0.1,7.7-0.4,11.5
				c-0.4-3.9-0.4-7.9-0.4-11.8c0.2-0.1,0.6-0.2,0.7-0.3c0,0,0.6-0.3,0.6-0.3C206,145.2,205.9,149.3,205.6,153.5L205.6,153.5z"/>
		</g>
		<g>
			<path class="st9" d="M210.9,143.3l-0.4,0.2c0.7,3.1,0.5,7.2,0,10.6c-0.6-3.6-0.6-7.1-0.1-10.7c0,0,0,0,0,0L210.9,143.3
				L210.9,143.3z"/>
		</g>
		<g>
			<path class="st9" d="M210.5,143.5c-1.6,0.2-3-0.2-4.3-1.3C207.8,142,209.2,142.5,210.5,143.5L210.5,143.5z"/>
		</g>
		<g>
			<path class="st9" d="M205.1,141.9c-1.4,0.2-2.6-0.1-3.6-1.1C202.9,140.6,204.1,141,205.1,141.9L205.1,141.9z"/>
		</g>
		<g>
			<path class="st9" d="M220,122c0.6,28.2,0.6,59.9,0,88.1C219.5,181.8,219.5,150.2,220,122L220,122z"/>
		</g>
		<g>
			<path class="st9" d="M168.4,105.5c0.6,42.1,0.6,89.3,0,131.4C167.9,194.8,167.9,147.6,168.4,105.5L168.4,105.5z"/>
		</g>
		<g>
			<path class="st9" d="M164.8,106.9c0.6,42.8,0.6,90.9,0,133.7C164.2,197.8,164.2,149.8,164.8,106.9L164.8,106.9z"/>
		</g>
		<g>
			<path class="st9" d="M121.4,104.2c0.6,47.8,0.6,101.4,0,149.1C120.8,205.5,120.9,151.9,121.4,104.2L121.4,104.2z"/>
		</g>
		<g>
			<path class="st9" d="M60,77.9c0.6,43.1,0.6,91.5,0,134.6C59.4,169.4,59.4,121,60,77.9L60,77.9z"/>
		</g>
		<g>
			<path class="st9" d="M144,95.1c0.6,35.9,0.6,76.1,0,112C143.4,171.2,143.4,130.9,144,95.1L144,95.1z"/>
		</g>
		<g>
			<path class="st9" d="M41.6,108c0.6,27.8,0.6,59,0,86.8C41,167,41,135.8,41.6,108L41.6,108z"/>
		</g>
		<g>
			<path class="st9" d="M105.4,129.6c0.6,27.8,0.6,59,0,86.8C104.8,188.6,104.8,157.4,105.4,129.6L105.4,129.6z"/>
		</g>
		<g>
			<path class="st9" d="M223.8,132.2c-55-21.2-116.5-45.7-171.1-68C107.7,85.4,169.2,109.9,223.8,132.2L223.8,132.2z"/>
		</g>
		<g>
			<path class="st9" d="M38.3,118.3c9.7-18,20.4-36.7,31.1-54.1C59.7,82.3,49,100.9,38.3,118.3L38.3,118.3z"/>
		</g>
		<g>
			<path class="st9" d="M77.4,99.2c0.6,15.5,0.6,31,0,46.5C76.8,130.2,76.8,114.7,77.4,99.2L77.4,99.2z"/>
		</g>
		<g>
			<path class="st9" d="M201.2,163.2c-9.6,0.2-23.3,0.3-32.7,0.4c0,0,0.4-0.4,0.4-0.4l0.1,20.8c0,0-0.5-0.4-0.5-0.4
				c8.2-1.1,24.6-3.3,32.8-4.4c0,0-0.2,0.3-0.2,0.3C201,174.1,201.1,168.7,201.2,163.2L201.2,163.2z M201.2,163.2
				c0.1,5.3,0.2,10.8,0.3,16.2c0,0,0,0.2,0,0.2s-0.2,0-0.2,0c-8.1,1.2-24.5,3.6-32.7,4.8c0,0-0.5,0.1-0.5,0.1c0,0,0-0.5,0-0.5
				l0.1-20.8l0-0.4C177.7,162.8,191.4,163.1,201.2,163.2L201.2,163.2z"/>
		</g>
		<g>
			<path class="st9" d="M199.1,163.2c0.6,5.3,0.6,10.6,0.2,15.9c0,0-0.2-0.2-0.2-0.2c0.7,0.2,1.4,0.3,2,0.5c-0.8,0-1.5-0.1-2.3-0.1
				c0,0,0-0.2,0-0.2C198.5,173.8,198.5,168.5,199.1,163.2L199.1,163.2z"/>
		</g>
		<g>
			<path class="st9" d="M199.1,179.1c-10.1,2-20.4,3.3-30.7,4C178.6,181.2,188.8,179.8,199.1,179.1L199.1,179.1z"/>
		</g>
		<g>
			<path class="st9" d="M198.1,163.2c0.2,5.1,0.4,10.2,0.4,15.3c0,0,0,0.4,0,0.4l-0.4,0c-9.6,1.2-20.1,2.4-29.7,3.1
				c7.1-1.2,15-2.2,22.2-3c0,0,7.4-0.8,7.4-0.8s-0.4,0.4-0.4,0.4C197.7,173.4,197.9,168.3,198.1,163.2L198.1,163.2z"/>
		</g>
		<g>
			<path class="st9" d="M184.8,163.2c0.6,5.6,0.6,11.2,0,16.8C184.2,174.4,184.2,168.8,184.8,163.2L184.8,163.2z"/>
		</g>
		<g>
			<path class="st9" d="M182.3,180.2c-0.6-5.7-0.6-11.3,0-17C183,168.8,183,174.5,182.3,180.2L182.3,180.2z"/>
		</g>
		<g>
			<path class="st9" d="M183.3,163.2c0.6,5.7,0.6,11.3,0,17C182.6,174.5,182.7,168.8,183.3,163.2L183.3,163.2z"/>
		</g>
		<g>
			<path class="st9" d="M198.1,178.4c-0.3,0-0.6,0.1-0.8,0.1c0,0,0-0.1,0-0.1c-0.5-5.1-0.5-10.2,0.1-15.3c0.6,5.1,0.6,10.2,0.1,15.3
				C197.2,178.3,197.8,178.4,198.1,178.4L198.1,178.4z"/>
		</g>
	</g>
</g>
</svg>
