<?xml version="1.0" encoding="utf-8"?>
<!-- Generator: Adobe Illustrator 27.9.0, SVG Export Plug-In . SVG Version: 6.00 Build 0)  -->
<svg version="1.1" id="Layer_1" xmlns="http://www.w3.org/2000/svg" xmlns:xlink="http://www.w3.org/1999/xlink" x="0px" y="0px"
	 viewBox="0 0 753 692.4" style="enable-background:new 0 0 753 692.4;" xml:space="preserve">
<style type="text/css">
	.st0{opacity:0.5;}
	.st1{fill:#FAFAFA;}
	.st2{fill:none;}
	.st3{fill:url(#SVGID_1_);}
	.st4{opacity:0.5;fill:url(#SVGID_00000140734283632821281970000005094320671943761855_);}
	.st5{fill:url(#SVGID_00000054260689972631183320000007250106531025434042_);}
	.st6{fill:#FFFFFF;}
	.st7{opacity:0.27;}
	.st8{opacity:0.5;fill:url(#SVGID_00000111870453962494373650000002627297257093825164_);}
	.st9{opacity:0.5;fill:url(#SVGID_00000070111510252488112080000015091534234821167805_);}
	.st10{opacity:0.5;fill:url(#SVGID_00000083795626672506729730000007521658994222460559_);}
</style>
<g>
	
		<image style="overflow:visible;" width="663" height="663" xlink:href="./7FF87910.png"  transform="matrix(1 0 0 1 66.1072 12.3043)">
	</image>
</g>
<image style="overflow:visible;" width="634" height="634" xlink:href="./7FF87911.png"  transform="matrix(0.9222 0 0 0.9222 104.2705 49.2874)">
</image>
<g>
	<g class="st0">
		<path class="st1" d="M433.9,386.2c-104-27.1-219.1-58.5-322.4-88.1C215.5,325.1,330.6,356.6,433.9,386.2L433.9,386.2z"/>
	</g>
	<g>
		<g>
			<path class="st1" d="M176.2,216.3c-21.4,40.9-44,81.3-67.8,120.9C129.9,296.2,152.5,255.9,176.2,216.3L176.2,216.3z"/>
		</g>
		<g>
			<path class="st1" d="M108.5,475.1c68.9,63,137.7,127.6,204.7,192.5C244.3,604.7,175.6,540,108.5,475.1L108.5,475.1z"/>
		</g>
		<g>
			<path class="st1" d="M108.5,467.4c68.8,53.6,137.6,108.8,204.7,164.5C244.4,578.4,175.6,523.1,108.5,467.4L108.5,467.4z"/>
		</g>
		<g>
			<path class="st1" d="M600.8,368.8c-51.8-17.9-103.8-37.3-154.6-57.8C498,329,549.9,348.4,600.8,368.8L600.8,368.8z"/>
		</g>
		<g>
			<path class="st1" d="M176.2,390.9c95-27.8,191.4-54.7,287.2-79.9C368.4,338.9,272,365.7,176.2,390.9L176.2,390.9z"/>
		</g>
		<g>
			<path class="st1" d="M600.8,479c-54.6,18.3-110.2,35.6-165.6,51.4C489.8,512,545.4,494.8,600.8,479L600.8,479z"/>
		</g>
		<g>
			<path class="st1" d="M287.4,632c100.1-45.6,212.4-95.2,313.5-138.3C500.8,539.2,388.5,588.8,287.4,632L287.4,632z"/>
		</g>
		<g>
			<path class="st1" d="M287.4,667.6c99.8-52.2,212.5-109.4,313.5-159.3C501,560.5,388.3,617.8,287.4,667.6L287.4,667.6z"/>
		</g>
		<g>
			<path class="st1" d="M299.2,370.7c-63.1,14.4-127.1,27.6-190.7,39.4C171.5,395.7,235.6,382.5,299.2,370.7L299.2,370.7z"/>
		</g>
		<g>
			<path class="st1" d="M278.7,372.1c105.4,12.8,217,27.9,322.1,43.3C495.3,402.5,383.8,387.6,278.7,372.1L278.7,372.1z"/>
		</g>
		<g>
			<path class="st1" d="M600.8,476c-105.9,30.2-224.5,62.7-331.1,90.4C375.6,536,494.2,503.7,600.8,476L600.8,476z"/>
		</g>
		<g>
			<path class="st1" d="M294.7,566.3c-62.5-35.2-125-71.9-186.2-109.5C171,492,233.5,528.8,294.7,566.3L294.7,566.3z"/>
		</g>
		<g>
			<path class="st1" d="M144.8,226.8c146.5,51.2,310.4,110,456,163.6C454.3,339.2,290.4,280.4,144.8,226.8L144.8,226.8z"/>
		</g>
		<g>
			<path class="st1" d="M435.3,425.6c55-0.2,110.6,0.9,165.6,3.3C545.8,429.1,490.2,428,435.3,425.6L435.3,425.6z"/>
		</g>
		<g>
			<path class="st1" d="M463.4,425.6c-113.7,3.3-241.2,5.5-354.9,6.2C222.1,428.5,349.7,426.3,463.4,425.6L463.4,425.6z"/>
		</g>
		<g>
			<path class="st1" d="M455,530.3c-111.3-26.8-235.9-58.3-346.5-87.7C219.8,469.5,344.3,501,455,530.3L455,530.3z"/>
		</g>
	</g>
	<g class="st0">
		<g>
			<path class="st1" d="M176.2,212.5c-21.4,40.9-44,81.3-67.8,120.9C129.9,292.4,152.5,252.1,176.2,212.5L176.2,212.5z"/>
		</g>
		<g>
			<path class="st1" d="M108.5,471.4c68.9,63,137.7,127.6,204.7,192.5C244.3,600.9,175.6,536.3,108.5,471.4L108.5,471.4z"/>
		</g>
		<g>
			<path class="st1" d="M108.5,463.7c68.8,53.6,137.6,108.8,204.7,164.5C244.4,574.6,175.6,519.4,108.5,463.7L108.5,463.7z"/>
		</g>
		<g>
			<path class="st1" d="M600.8,365c-51.8-17.9-103.8-37.3-154.6-57.8C498,325.2,549.9,344.6,600.8,365L600.8,365z"/>
		</g>
		<g>
			<path class="st1" d="M176.2,387.2c95-27.8,191.4-54.7,287.2-79.9C368.4,335.1,272,361.9,176.2,387.2L176.2,387.2z"/>
		</g>
		<g>
			<path class="st1" d="M600.8,475.2c-54.6,18.3-110.2,35.6-165.6,51.4C489.8,508.2,545.4,491,600.8,475.2L600.8,475.2z"/>
		</g>
		<g>
			<path class="st1" d="M287.4,628.2c100.1-45.6,212.4-95.2,313.5-138.3C500.8,535.5,388.5,585,287.4,628.2L287.4,628.2z"/>
		</g>
		<g>
			<path class="st1" d="M287.4,663.8c99.8-52.2,212.5-109.4,313.5-159.3C501,556.7,388.3,614,287.4,663.8L287.4,663.8z"/>
		</g>
		<g>
			<path class="st1" d="M299.2,366.9c-63.1,14.4-127.1,27.6-190.7,39.4C171.5,391.9,235.6,378.7,299.2,366.9L299.2,366.9z"/>
		</g>
		<g>
			<path class="st1" d="M278.7,368.3c105.4,12.8,217,27.9,322.1,43.3C495.3,398.8,383.8,383.8,278.7,368.3L278.7,368.3z"/>
		</g>
		<g>
			<path class="st1" d="M600.8,472.2c-105.9,30.2-224.5,62.7-331.1,90.4C375.6,532.3,494.2,499.9,600.8,472.2L600.8,472.2z"/>
		</g>
		<g>
			<path class="st1" d="M294.7,562.5c-62.5-35.2-125-71.9-186.2-109.5C171,488.3,233.5,525,294.7,562.5L294.7,562.5z"/>
		</g>
		<g>
			<path class="st1" d="M144.8,223c146.5,51.2,310.4,110,456,163.6C454.3,335.4,290.4,276.6,144.8,223L144.8,223z"/>
		</g>
		<g>
			<path class="st1" d="M435.3,421.8c55-0.2,110.6,0.9,165.6,3.3C545.8,425.4,490.2,424.2,435.3,421.8L435.3,421.8z"/>
		</g>
		<g>
			<path class="st1" d="M463.4,421.8c-113.7,3.3-241.2,5.5-354.9,6.2C222.1,424.7,349.7,422.5,463.4,421.8L463.4,421.8z"/>
		</g>
		<g>
			<path class="st1" d="M455,526.6c-111.3-26.8-235.9-58.3-346.5-87.7C219.8,465.7,344.3,497.2,455,526.6L455,526.6z"/>
		</g>
	</g>
	<g class="st0">
		<g>
			<path class="st1" d="M176.2,219.2c-21.4,40.9-44,81.3-67.8,120.9C129.9,299.1,152.5,258.8,176.2,219.2L176.2,219.2z"/>
		</g>
		<g>
			<path class="st1" d="M108.5,478c68.9,63,137.7,127.6,204.7,192.5C244.3,607.6,175.6,542.9,108.5,478L108.5,478z"/>
		</g>
		<g>
			<path class="st1" d="M108.5,470.3c68.8,53.6,137.6,108.8,204.7,164.5C244.4,581.3,175.6,526,108.5,470.3L108.5,470.3z"/>
		</g>
		<g>
			<path class="st1" d="M600.8,371.7C549,353.8,497.1,334.4,446.2,314C498,331.9,549.9,351.3,600.8,371.7L600.8,371.7z"/>
		</g>
		<g>
			<path class="st1" d="M176.2,393.8c95-27.8,191.4-54.7,287.2-79.9C368.4,341.8,272,368.6,176.2,393.8L176.2,393.8z"/>
		</g>
		<g>
			<path class="st1" d="M600.8,481.9c-54.6,18.3-110.2,35.6-165.6,51.4C489.8,514.9,545.4,497.6,600.8,481.9L600.8,481.9z"/>
		</g>
		<g>
			<path class="st1" d="M287.4,634.9c100.1-45.6,212.4-95.2,313.5-138.3C500.8,542.1,388.5,591.7,287.4,634.9L287.4,634.9z"/>
		</g>
		<g>
			<path class="st1" d="M287.4,670.5c99.8-52.2,212.5-109.4,313.5-159.3C501,563.4,388.3,620.7,287.4,670.5L287.4,670.5z"/>
		</g>
		<g>
			<path class="st1" d="M299.2,373.6c-63.1,14.4-127.1,27.6-190.7,39.4C171.5,398.6,235.6,385.4,299.2,373.6L299.2,373.6z"/>
		</g>
		<g>
			<path class="st1" d="M278.7,375c105.4,12.8,217,27.9,322.1,43.3C495.3,405.4,383.8,390.5,278.7,375L278.7,375z"/>
		</g>
		<g>
			<path class="st1" d="M600.8,478.8c-105.9,30.2-224.5,62.7-331.1,90.4C375.6,538.9,494.2,506.6,600.8,478.8L600.8,478.8z"/>
		</g>
		<g>
			<path class="st1" d="M294.7,569.2c-62.5-35.2-125-71.9-186.2-109.5C171,494.9,233.5,531.7,294.7,569.2L294.7,569.2z"/>
		</g>
		<g>
			<path class="st1" d="M144.8,229.6c146.5,51.2,310.4,110,456,163.6C454.3,342.1,290.4,283.3,144.8,229.6L144.8,229.6z"/>
		</g>
		<g>
			<path class="st1" d="M435.3,428.5c55-0.2,110.6,0.9,165.6,3.3C545.8,432,490.2,430.9,435.3,428.5L435.3,428.5z"/>
		</g>
		<g>
			<path class="st1" d="M463.4,428.5c-113.7,3.3-241.2,5.5-354.9,6.2C222.1,431.4,349.7,429.1,463.4,428.5L463.4,428.5z"/>
		</g>
		<g>
			<path class="st1" d="M455,533.2c-111.3-26.8-235.9-58.3-346.5-87.7C219.8,472.4,344.3,503.9,455,533.2L455,533.2z"/>
		</g>
	</g>
	<g>
		<g>
			<path class="st1" d="M595.4,367.1c0.6,45.9,0.9,98.1,1,144c0,0,0,0.6,0,0.6l-0.5,0.3l-4.5,2.3l-1.4,0.7l0-1.6
				c0.1-33,0.2-78,0.5-111c0,0,0.4-37.1,0.4-37.1c0,0,0.1,0,0.1,0L595.4,367.1L595.4,367.1z M595.4,367.1l-4.6-1.6l0.1-0.1
				c0.7,46.4,0.9,101.6,0.9,148c0,0-1.4-0.9-1.4-0.9l4.6-2.3l-0.5,0.9l0.1-35.9C594.6,442,595,400.6,595.4,367.1L595.4,367.1z"/>
		</g>
		<g>
			<path class="st1" d="M590.8,365.4l-4.9,1.2l0.1-0.2c0.3,10.4,0.5,25.7,0.6,36.4c0.3,33.6,0.2,75.6-0.6,109.1c0,0-0.1-0.2-0.1-0.2
				l4.9,1.6l-5-1.3l-0.1,0l0-0.1c-0.9-33.4-0.9-75.5-0.6-109.1c0.1-10.6,0.4-25.9,0.6-36.4c0,0,0-0.1,0-0.1l0.1,0L590.8,365.4
				L590.8,365.4z"/>
		</g>
	</g>
	<g>
		<path class="st1" d="M444.1,527.6c-0.4-59.8-1-152-1-211.1c0,0,1.2,0.9,1.2,0.9l-10.2,2.8l0.7-1c-0.1,58.3-0.3,148.1-0.9,205.7
			c0,0-0.1-0.1-0.1-0.1L444.1,527.6L444.1,527.6z M444.1,527.6l-10.2-2.5l-0.1,0l0-0.1c-0.6-57.7-0.8-148.1-0.9-206.5
			c0,0,0.7-0.2,0.7-0.2l10.2-2.8l1.3-0.3l0,1.3C445.1,375.5,444.5,467.9,444.1,527.6L444.1,527.6z"/>
	</g>
	<g>
		<path class="st1" d="M444.1,316.4l9.8,2.9l0.1,0c0,0,0.4,51.4,0.4,51.4c0.3,45.7,0.4,108.2,0.5,153.8c0,0,0,0.7,0,0.7l-0.7,0.2
			l-9.8,3l-1.3,0.4l0-1.3C443.1,468.5,443.7,376.1,444.1,316.4L444.1,316.4z M444.1,316.4c0.4,59.8,1,152,1,211.1
			c0,0-1.3-0.9-1.3-0.9l9.8-3l-0.7,0.9c0.1-64.3,0.3-140.8,0.9-205.1c0,0,0.1,0.1,0.1,0.1L444.1,316.4L444.1,316.4z"/>
	</g>
	<g>
		<path class="st1" d="M396.3,388.6c0.6,45.9,0.9,98,1,143.9c0,0-0.7,0.2-0.7,0.2l-7.4,2l-1.3,0.3c0.1-42,0.3-105.9,0.9-147.4
			c0,0,0-0.1,0-0.1l0.1,0L396.3,388.6L396.3,388.6z M396.3,388.6l-7.4-0.8l0.1-0.1c0.6,40.8,0.8,104.9,0.9,146.1c0,0-1.3-1-1.3-1
			l7.4-2l-0.7,0.9C395.4,486.2,395.8,434.3,396.3,388.6L396.3,388.6z"/>
	</g>
	<g>
		<path class="st1" d="M388.9,387.7l-7.5,1.4l0.2-0.2c1,45.9,1,96.3,0,142.2c0,0-0.1-0.2-0.1-0.2c2.5,1,5,1.9,7.4,2.9
			c-2.6-0.8-5.2-1.7-7.7-2.5l0-0.2c-1-45.9-1-96.3,0-142.2c0,0,0-0.2,0-0.2l0.2,0L388.9,387.7L388.9,387.7z"/>
	</g>
	<g>
		<path class="st1" d="M286.8,561.7c-0.4-54.6-1-134.5-1-188.4c0,0,0-1.1,0-1.1l1.1,0.1l10.5,1.3l0.9,0.1
			c-0.1,52.6-0.3,133.1-0.9,185.1c0,0,0,0.1,0,0.1l-0.1,0L286.8,561.7L286.8,561.7z M286.8,561.7l10.4-3l-0.1,0.1
			c-0.6-51.4-0.8-132.2-0.9-184.2c0,0,0.9,1,0.9,1l-10.5-1.3l1.1-1C287.7,426.8,287.2,507.5,286.8,561.7L286.8,561.7z"/>
	</g>
	<g>
		<path class="st1" d="M286.8,373.2l-9.5,2.1l0.1-0.1c0.6,57.7,0.8,123.2,0.9,180.8c0,0-0.5-0.9-0.5-0.9l9.5,5.6l-1.5,0.9
			C285.8,509.1,286.3,426.4,286.8,373.2L286.8,373.2z M286.8,373.2c0.4,53.5,1,135.5,1,188.4c0,0,0,1.7,0,1.7l-1.5-0.9l-9.5-5.6
			l-0.5-0.3l0-0.6c0.1-57.6,0.3-123.2,0.9-180.8c0,0,0-0.1,0-0.1l0.1,0L286.8,373.2L286.8,373.2z"/>
	</g>
	<g>
		<path class="st1" d="M166.1,234.4c0.3,93.3,1,204,1,297.2c0,0-1.7-1.6-1.7-1.6l-5.7-5.3c-0.8-79.2,0.3-201.6,0.6-280.2
			C160.3,244.5,166.1,234.4,166.1,234.4L166.1,234.4z M166.1,234.4c0,0-5.7,10.3-5.6,10.1c0.3,76.6,1.4,204.3,0.6,278.7
			c0,0,5.7,5.3,5.7,5.3l-1.7,0.7C165.1,436.9,165.8,326.8,166.1,234.4L166.1,234.4z"/>
	</g>
	<g>
		<path class="st1" d="M166.1,234.4l8.9,3.1l0,0l0,0c0.7,81.1,0.8,208.5,0.9,290.5c0,0,0,0.9,0,0.9l-0.9,0.1l-8.9,1.2l-1.1,0.2
			l0-1.1C165.1,446.9,165.7,317.7,166.1,234.4L166.1,234.4z M166.1,234.4c0.4,83.6,1,212.3,1,294.9c0,0-1.1-1-1.1-1l8.9-1.2l-0.9,1
			c0.1-82.4,0.3-209.1,0.9-290.5C175.2,237.7,166,234.4,166.1,234.4L166.1,234.4z"/>
	</g>
	<g>
		<path class="st1" d="M117.2,321.7c0.7,51.6,0.9,110.1,1,161.6c0,0-0.3-0.7-0.3-0.7l3.4,3.2l-1.7,0.7c0.2-48.3-0.1-123.6,1.1-170.8
			C120.6,315.7,117.2,321.7,117.2,321.7L117.2,321.7z M117.2,321.7l3.3-6.1l0.2-0.3l0,0.4c0.7,48.7,0.8,123.9,0.9,173.2
			c0,0-1.7-1.6-1.7-1.6l-3.4-3.2l-0.3-0.3C116.2,432.1,116.5,373.4,117.2,321.7L117.2,321.7z"/>
	</g>
	<g>
		<path class="st1" d="M120.6,315.6l5.4,1.7l0.1,0l0,0.1c0.3,12.1,0.5,29.9,0.7,42.3c0.3,39.1,0.2,87.9-0.7,126.8c0,0,0,0.1,0,0.1
			l-0.1,0l-5.3-0.1l5.3-0.1l-0.1,0.1c-0.9-38.8-0.9-87.8-0.7-126.8c0.1-12.3,0.4-30.1,0.7-42.3c0,0,0.1,0.1,0.1,0.1L120.6,315.6
			L120.6,315.6z"/>
	</g>
	<g>
		<g>
			<path class="st1" d="M328.7,292.7c0.6,67.4,0.9,147.6,1,215c0,0-0.8,0.1-0.8,0.1l-7.7,1.4l-1.2,0.2c0.1-62.4,0.3-157.8,0.9-219.5
				c0,0,0-0.1,0-0.1l0.1,0L328.7,292.7L328.7,292.7z M328.7,292.7l-7.7-2.7c0.3-0.5,0.4,54.6,0.6,54.5c0.3,34.6,0.4,127.9,0.5,163.8
				c0,0-1.2-1-1.2-1l7.7-1.4l-0.8,1C327.8,439.8,328.1,359.8,328.7,292.7L328.7,292.7z"/>
		</g>
		<g>
			<path class="st1" d="M321,290l-7.8,4.3c0.1-0.4,0.4,52.6,0.5,52.5c0.3,49,0.4,108.8,0.5,157.9c0,0-0.6-0.9-0.6-0.9l7.8,3.7
				l-1.4,0.9C320.1,447.4,320.6,351.6,321,290L321,290z M321,290c0.4,62,1,157,1,218.3c0,0,0,1.6,0,1.6l-1.4-0.7l-7.8-3.7l-0.6-0.3
				l0-0.6c0.1-49,0.2-108.8,0.5-157.9c0.1,0,0.3-52.7,0.5-52.7C313.2,294.1,321,290,321,290L321,290z"/>
		</g>
	</g>
	<g>
		<path class="st1" d="M158.6,530.3c141.5-20.8,300.4-42.7,442.2-60.9C459.4,490.3,300.5,512.1,158.6,530.3L158.6,530.3z"/>
	</g>
	<g>
		<path class="st1" d="M125.9,517.8c17.6-2.3,37.2-4.5,54.9-6.5c0,0,18.3-2,18.3-2l-0.8,0.9c0-9.9-0.1-19.8-0.1-29.7
			c0.1-28.8,0.3-60.6,1-89.2c0.7,28.6,0.9,60.4,1,89.2c0.1,10.2-0.1,20.4-0.1,30.6l-0.8,0.1l-18.3,1.8
			C163.2,514.5,143.6,516.4,125.9,517.8L125.9,517.8z"/>
	</g>
	<g>
		<path class="st1" d="M208.4,267.2c27.8,7.8,55.1,16.9,82,27.2C262.6,286.7,235.3,277.6,208.4,267.2L208.4,267.2z"/>
	</g>
	<g>
		<path class="st1" d="M285.2,288.9c1.4,28.1,1.4,56.3,0,84.4C283.8,345.1,283.9,317,285.2,288.9L285.2,288.9z"/>
	</g>
	<g>
		<path class="st1" d="M285.2,292.7c-5.5,2.8-11.1,5.5-16.7,8.1c-4.8-1.4-9.6-2.8-14.4-4.2c-14.1-4.3-28.1-8.8-41.8-14
			c14.3,3.5,28.4,7.7,42.4,12.2c4.7,1.5,9.3,3,14,4.6c0,0-0.5,0-0.5,0C273.8,297.1,279.5,294.8,285.2,292.7L285.2,292.7z"/>
	</g>
	<g>
		<path class="st1" d="M268.5,300.1c1.4,25.3,1.4,50.7,0,76C267.1,350.8,267.1,325.4,268.5,300.1L268.5,300.1z"/>
	</g>
	<g>
		<path class="st1" d="M262.5,378.2c-0.9-24.7-1.1-49.3-1-74c0,0,0.7,0.9,0.7,0.9c-6.2-1.9-18.8-5.9-25-7.9
			c-8.3-2.7-16.6-5.5-24.9-8.4c8.5,2.2,16.9,4.6,25.3,7c6.3,1.8,18.9,5.5,25.2,7.4c0,0,0.7,0.2,0.7,0.2l0,0.7
			C263.6,328.9,263.4,353.6,262.5,378.2L262.5,378.2z"/>
	</g>
	<g>
		<path class="st1" d="M262.5,304.2c-1.4,1-2.7,1.9-4.1,2.9l-0.2,0c-15.6-3.8-31-8.4-45.9-14.3c11.8,2.5,23.3,5.9,34.8,9.6
			c3.8,1.2,7.6,2.6,11.4,4l-0.3,0C259.6,305.6,261,304.9,262.5,304.2L262.5,304.2z"/>
	</g>
	<g>
		<path class="st1" d="M258.3,306.7c1.4,24.1,1.4,48.3,0,72.4C256.9,355,257,330.8,258.3,306.7L258.3,306.7z"/>
	</g>
	<g>
		<path class="st1" d="M231.9,294.9c1.4,29.9,1.4,59.8,0,89.7C230.5,354.7,230.5,324.7,231.9,294.9L231.9,294.9z"/>
	</g>
	<g>
		<path class="st1" d="M228,385.4c-0.8-29.6-0.9-62-1-91.7c0,0,1.7,0.7,1.7,0.7l-3.1,2.9l0.3-0.7c0,20.8-0.2,46.3-0.5,67.1
			c-0.2,7.5-0.3,14.9-0.5,22.4c-0.2-7.5-0.3-14.9-0.5-22.4c-0.2-13.2-0.4-31.7-0.4-44.7c0,0-0.1-22.4-0.1-22.4
			c0-0.3,0.1-0.5,0.3-0.7l3.1-2.9c0.4-0.4,1-0.3,1.4,0.1c0.2,0.2,0.3,0.4,0.3,0.7l-0.1,22.9C228.9,338.6,228.6,363.3,228,385.4
			L228,385.4z"/>
	</g>
	<g>
		<path class="st1" d="M152.7,295.2c0.2,17.3,0.6,41,0.8,58.3c0,0,0.1,19.7,0.1,19.7l0,0.6l-0.5,0.3l-10.9,5.6
			c-0.7,0.4-12,6.1-12.3,6.3c0,0,0-1.6,0-1.6c0.1-17.6,0.1-43.3,0.4-60.6C137.7,314.1,145.4,304.7,152.7,295.2L152.7,295.2z
			 M152.7,295.2c-7.3,9.7-14.1,19.4-21.3,29c0,0,0.1-0.4,0.1-0.4c0.2,17.2,0.3,43,0.4,60.4c0,0-1.4-0.9-1.4-0.9
			c5.4-2.8,16.4-8.3,21.8-11c0,0-0.5,0.8-0.5,0.8l0.1-19.3C152.2,336.5,152.6,312.7,152.7,295.2L152.7,295.2z"/>
	</g>
	<g>
		<path class="st1" d="M131,323.9c2-0.4,4.1-0.6,6.2-0.7l-0.5,0.2c3.6-4.3,7.5-8.4,11.7-12.2c1.4-1.2,2.9-2.5,4.4-3.6
			c-2.1,3.1-4.6,6-7.1,8.8c-2.6,2.9-5.4,5.6-8.2,8.2C135.2,324.4,133.1,324.2,131,323.9L131,323.9z"/>
	</g>
	<g>
		<path class="st1" d="M137.1,323.9c1.4,19,1.4,38.1,0,57.1C135.7,362,135.8,342.9,137.1,323.9L137.1,323.9z"/>
	</g>
	<g>
		<path class="st1" d="M139.2,380.1c-1.1-18.3-1.2-36.6-0.8-54.8c0,0,0-0.3,0-0.3l0.2-0.2c3.3-3.4,7.1-7,10.5-10.3
			c1.2-1.1,2.4-2.3,3.6-3.4c-1,1.3-2.1,2.5-3.2,3.7c-3.1,3.6-6.6,7.5-9.7,11c0,0,0.2-0.6,0.2-0.6
			C140.4,343.5,140.3,361.8,139.2,380.1L139.2,380.1z"/>
	</g>
	<g>
		<path class="st1" d="M139.2,325.3c0.6-0.2,1.1-0.3,1.7-0.4l-0.3,0.1c3.3-4.4,7.3-8.3,12.1-11.1c-1.4,2.4-3.3,4.4-5.2,6.4
			c-2,2-4.1,3.8-6.5,5.4C140.4,325.6,139.8,325.4,139.2,325.3L139.2,325.3z"/>
	</g>
	<g>
		<path class="st1" d="M140.9,325.3c1.4,18,1.4,36,0,54C139.5,361.3,139.5,343.2,140.9,325.3L140.9,325.3z"/>
	</g>
	<g>
		<path class="st2" d="M199.2,510.2"/>
	</g>
	<g>
		<path class="st1" d="M307,556.5c-0.3-39.2-0.8-118.2-0.9-157.4c0,0,0-1,0-1l1,0.1l68.6,7.1l0.9,0.1l0,0.9
			c0.1,36.6-0.1,94.1-0.1,131.1c0,0,0,1.3,0,1.3l-1.2-0.5l-17.6-7.1l-0.5-0.2l0-0.5c0.1-31.4,0.5-94.5,0.8-125.9
			c0.3,31.4,0.7,94.5,0.8,125.9c0,0-0.5-0.7-0.5-0.7l17.6,7l-1.2,0.8c0-21.8-0.1-77.3-0.1-98.3c0,0,0-32.8,0-32.8l0.9,1l-68.6-7.3
			l1-0.9C307.8,438.4,307.3,517.3,307,556.5L307,556.5z"/>
	</g>
	<g>
		<path class="st1" d="M358,530.3c-16.6,5.7-33.7,10.1-51,13.2C323.6,537.8,340.7,533.4,358,530.3L358,530.3z"/>
	</g>
	<g>
		<path class="st1" d="M335.1,417c5.2,0.3,12.2,0.5,17.3,0.8c0,0,0.6,0,0.6,0l0,0.6c0.3,10.7,0.4,21.3,0.4,32c0,0,0,1,0,1l-1,0
			c-4.3,0-12.9,0-17.2-0.1c0,0-0.9,0-0.9,0l0-0.9C334.2,440.6,334.8,426.9,335.1,417L335.1,417z M335.1,417
			c0.3,9.7,0.8,23.8,0.9,33.4c0,0-0.9-0.9-0.9-0.9l8.6-0.1l8.6,0l-1,1c0-10.7,0.1-21.3,0.4-32c0,0,0.6,0.6,0.6,0.6
			C347.4,418.5,340.1,417.6,335.1,417L335.1,417z"/>
	</g>
	<g>
		<path class="st1" d="M331.4,417c0.3,9.5,0.8,24,0.9,33.4c0,0,0,0.9,0,0.9l-0.9,0c-5.3,0.1-15.9,0.1-21.2,0.1c0,0-1,0-1,0l0-1
			c0-11.3,0.1-23.7,0.3-35c0,0,0-0.7,0-0.7l0.7,0.1C316.4,415.3,325.1,416.4,331.4,417L331.4,417z M331.4,417
			c-6.2-0.2-15.2-0.7-21.2-1c0,0,0.7-0.7,0.7-0.7c0.2,11.3,0.3,23.7,0.3,35c0,0-1-1-1-1c5.3,0,15.9,0.1,21.2,0.1
			c0,0-0.9,0.9-0.9,0.9C330.6,441.1,331,426.4,331.4,417L331.4,417z"/>
	</g>
	<g>
		<path class="st1" d="M352.3,454.5c-5,0.2-12.3,0.5-17.2,0.6c0,0,0.6-0.6,0.6-0.6c0.1,3.8,0.2,11.5,0.3,15.4
			c0.1,5.1,0.1,10.2,0.1,15.4l-1.1-1c4.3-0.3,12.9-0.8,17.2-1c0,0-0.8,0.9-0.8,0.9C351.5,475.7,352,463.1,352.3,454.5L352.3,454.5z
			 M352.3,454.5c0.3,9.1,0.8,21.3,0.9,30.4c-4.7,0.4-13.3,1-18.1,1.4c0,0-1.1,0.1-1.1,0.1c0-5.5,0-11,0.1-16.4
			c0-4.2,0.2-11.9,0.3-16C339.8,454,346.9,454.3,352.3,454.5L352.3,454.5z"/>
	</g>
	<g>
		<path class="st1" d="M331.4,454.5c0.3,9.5,0.8,22.1,0.9,31.5c-5.7,0.4-16.3,1.1-22,1.4c0,0-1.1,0.1-1.1,0.1l0-1.1
			c0-10.7,0.1-21.5,0.3-32.2C316,454.3,324.8,454.5,331.4,454.5L331.4,454.5z M331.4,454.5c-6.2,0.4-15.1,0.9-21.2,1.2
			c0,0,0.7-0.7,0.7-0.7c0.2,10.5,0.3,21,0.3,31.5c0,0-1.1-1-1.1-1c5.3-0.3,15.9-0.8,21.2-1.1c0,0-0.8,0.9-0.8,0.9
			C330.6,476.5,331.1,463.5,331.4,454.5L331.4,454.5z"/>
	</g>
	<g>
		<path class="st1" d="M266.5,399.2c0.1,8.9,0.6,21.1,0.6,29.9c0,0,0,0.6,0,0.6l-0.6,0l-15,0.5c-14.4,0.4-30.5,0.7-44.9,1
			c0,0-1,0-1,0l0-1l0.1-23.4l0-0.8c5.3-0.6,10.6-1.3,15.9-1.9C235.6,402.4,252.6,400.6,266.5,399.2L266.5,399.2z M266.5,399.2
			c-17.2,2.5-42.7,6.2-59.8,8.4c0,0,0.8-0.9,0.8-0.9l0.1,23.4l-1-1c5-0.1,10-0.1,15-0.2c8.8-0.1,21.2-0.3,29.9-0.4
			c0,0,15-0.1,15-0.1l-0.6,0.6C266,420.5,266.3,407.9,266.5,399.2L266.5,399.2z"/>
	</g>
	<g>
		<path class="st1" d="M213.3,429.9c-1.4-8-1.4-16.2,0-24.1C214.7,413.8,214.7,422,213.3,429.9L213.3,429.9z"/>
	</g>
	<g>
		<path class="st1" d="M238.6,402.6c1.4,8.9,1.4,18,0,26.8C237.3,420.6,237.3,411.5,238.6,402.6L238.6,402.6z"/>
	</g>
	<g>
		<path class="st1" d="M233.7,403.3c1.4,8.7,1.4,17.6,0,26.2C232.4,420.8,232.4,411.9,233.7,403.3L233.7,403.3z"/>
	</g>
	<g>
		<path class="st1" d="M242.2,402.6c1.4,8.9,1.4,17.9,0,26.8C240.8,420.6,240.8,411.5,242.2,402.6L242.2,402.6z"/>
	</g>
	<g>
		<path class="st1" d="M152.7,413.3c0.2,5.6,0.7,12.9,0.8,18.4c-6.6,0.3-15.8,0.5-22.5,0.7c0,0-1,0-1,0l0-1c0-4.1,0.1-11.6,0.2-15.8
			C136.9,414.8,145.9,414,152.7,413.3L152.7,413.3z M152.7,413.3c-6.3,1.2-15.5,2.9-21.7,3.9c0,0,0.7-0.8,0.7-0.8
			c0.1,3.7,0.1,11.3,0.1,15c0,0-1-1-1-1c6.4-0.1,15.4-0.2,21.8-0.1c0,0-0.7,0.7-0.7,0.7c0-1.4,0.1-2.9,0.1-4.3
			C152.2,423.9,152.6,416.2,152.7,413.3L152.7,413.3z"/>
	</g>
	<g>
		<path class="st1" d="M134.3,415.9c1.4,5,1.4,10.4,0,15.4C132.9,426.3,132.9,420.9,134.3,415.9L134.3,415.9z"/>
	</g>
	<g>
		<path class="st1" d="M141.8,414.8c1.4,5.3,1.4,11,0,16.3C140.5,425.8,140.5,420.2,141.8,414.8L141.8,414.8z"/>
	</g>
	<g>
		<path class="st1" d="M144.8,414.6c1.4,5.4,1.4,11.1,0,16.5C143.4,425.7,143.4,420,144.8,414.6L144.8,414.6z"/>
	</g>
	<g>
		<path class="st1" d="M146.7,414.2c1.4,5.5,1.4,11.4,0,16.9C145.3,425.6,145.3,419.7,146.7,414.2L146.7,414.2z"/>
	</g>
	<g>
		<path class="st1" d="M595.4,363.7c-0.3,0.4,0.9,132.7,0.2,132.7c-72.6,32.2-218.5,97-291.1,129c0,0-0.5,0.2-0.5,0.2l-0.4-0.3
			l-138-111l-1.9-1.5l2.4-0.2l33.1-3.4l0.3,0l0.3,0.2l87.5,51.5l-1.4,0.8l0.2-188.4l0-0.8l0.8,0.1c0.4,0,140.5,19.1,140.8,19.2
			c0.3,0-0.6,131.5-0.4,131.6c0,0-0.4-131.3-0.4-131.3c2.4,1.1-140.7-18.4-140.2-18.1c0,0,0.8-0.7,0.8-0.7l0.2,188.4l0,1.6l-1.4-0.8
			c0.5,0.6-89.7-52.6-87-51.3c0,0-33.1,3.4-33.1,3.4l0.5-1.8c-0.3-0.2,140.7,112.6,137,111c0,0,145.7-64.1,145.7-64.1l145.8-64
			C595,497.8,595.3,363.3,595.4,363.7L595.4,363.7z"/>
	</g>
	<g>
		<path class="st1" d="M166.1,226.8c1.3,56.9,1.3,114.5,0,171.4C164.7,341.2,164.8,283.7,166.1,226.8L166.1,226.8z"/>
	</g>
	<g>
		<path class="st1" d="M453.5,313.8c0.4,25,0.7,59.1,0.8,84.1c0,0,0.1,28,0.1,28l0,0.9l-0.9,0l-9.4,0l0.9-0.9
			c0.1,27.6,0,61.4-0.1,88.9c0,0-0.1,12.7-0.1,12.7l0,1l-0.9-0.2l-16.8-4.4c-6.9,2-17.4,4.7-25.6,6.8c0,0-25.9,6.7-25.9,6.7
			l25.7-7.4c8.7-2.4,17.4-5.1,26.1-7.3c0,0,16.8,4.1,16.8,4.1l-0.9,0.7c-0.2-23.2-0.2-52.9-0.2-76.2c0,0,0.1-25.4,0.1-25.4l0-0.9
			l0.9,0l9.4,0l-0.9,0.9C452.6,390.8,453,348.9,453.5,313.8L453.5,313.8z"/>
	</g>
	<g>
		<path class="st1" d="M549.7,494.8l36.2,4.6l-0.5,0.4c-0.2-20.9-0.4-50.4-0.4-71c0,0,0.9,0.9,0.9,0.9l-35.4-0.9l1-0.9
			c-0.1,18.7-0.5,48-0.8,66.9c0,0,0,0.7,0,0.7l-0.6,0.2c-24.6,7.5-54.9,16.8-79.4,24c0,0-26.5,7.9-26.5,7.9
			c15.7-5.1,37.2-12.1,52.7-16.9c13.1-4.2,39.6-12.5,52.7-16.6c0,0-0.6,0.8-0.6,0.8c0.2-19,0.3-48.2,0.6-66.9c0,0,0-1,0-1l1,0
			l35.4,1.1l0.9,0l0,0.9c0.1,20.5-0.3,50.2-0.4,71c0,0,0,0.5,0,0.5l-0.5-0.1L549.7,494.8L549.7,494.8z"/>
	</g>
	<g>
		<path class="st1" d="M595.4,496.1l0.2,15.1l0,0.1l-0.1,0.1c-18.1,9.4-54.4,28.2-72.5,37.5c-66.9,34.3-151.6,77.3-218.6,110.6
			c0,0-0.5,0.3-0.5,0.3l0-0.6l0.4-34.5l0.4,34.5l-0.5-0.3c66.3-34.4,151.2-77.6,218.2-111.4c18.1-9.1,54.9-27.4,73.1-36.5
			c0,0-0.1,0.2-0.1,0.2L595.4,496.1L595.4,496.1z"/>
	</g>
	<g>
		<path class="st1" d="M446.2,636.5c0.5,5.9,8.7,8.4,13.6,9.7c11.4,2.6,23.6,2.3,34.9-0.7c16.9-4.7,16.9-13.2,0-18
			c-11.3-3-23.5-3.3-34.9-0.7C454.9,628.2,446.7,630.6,446.2,636.5L446.2,636.5z M446.2,636.5c0.4-5.9,8.7-8.5,13.5-10
			c11.5-3,23.8-3.3,35.4-0.7c19,4.6,19,16.7,0,21.3c-11.6,2.6-23.9,2.3-35.4-0.7C454.9,645.1,446.6,642.4,446.2,636.5L446.2,636.5z"
			/>
	</g>
	<g>
		<path class="st1" d="M499.4,600.1c0.4,3.1,4.2,4.1,6.8,4.8c5.7,1.2,11.8,0.9,17.3-0.7c7.9-2.4,7.9-5.8,0-8.2
			c-5.5-1.6-11.6-1.9-17.3-0.7C503.6,596,499.9,597,499.4,600.1L499.4,600.1z M499.4,600.1c0.3-3,4.2-4.2,6.7-5.1
			c5.8-1.6,11.9-1.9,17.8-0.7c10,2.2,10,9.3,0,11.5c-5.9,1.2-12.1,0.9-17.8-0.7C503.7,604.3,499.8,603.1,499.4,600.1L499.4,600.1z"
			/>
	</g>
	<g>
		<path class="st1" d="M137.2,571.4c0.4,3.1,4.2,4.1,6.8,4.8c5.7,1.2,11.8,0.9,17.3-0.7c7.9-2.4,7.9-5.8,0-8.2
			c-5.5-1.6-11.6-1.9-17.3-0.7C141.4,567.3,137.6,568.3,137.2,571.4L137.2,571.4z M137.2,571.4c0.3-3,4.2-4.2,6.7-5.1
			c5.8-1.6,11.9-1.9,17.8-0.7c10,2.2,10,9.3,0,11.5c-5.9,1.2-12.1,0.9-17.8-0.7C141.4,575.6,137.5,574.4,137.2,571.4L137.2,571.4z"
			/>
	</g>
	<g>
		<path class="st1" d="M165.2,600.1c0.4,3.1,4.2,4.1,6.8,4.8c5.7,1.2,11.8,0.9,17.3-0.7c7.9-2.4,7.9-5.8,0-8.2
			c-5.5-1.6-11.6-1.9-17.3-0.7C169.4,596,165.7,597,165.2,600.1L165.2,600.1z M165.2,600.1c0.3-3,4.2-4.2,6.7-5.1
			c5.8-1.6,11.9-1.9,17.8-0.7c10,2.2,10,9.3,0,11.5c-5.9,1.2-12.1,0.9-17.8-0.7C169.4,604.3,165.6,603.1,165.2,600.1L165.2,600.1z"
			/>
	</g>
	<g>
		<path class="st1" d="M197.8,636.5c0.4,3.1,4.2,4.1,6.8,4.8c5.7,1.2,11.8,0.9,17.3-0.7c7.9-2.4,7.9-5.8,0-8.2
			c-5.5-1.6-11.6-1.9-17.3-0.7C202,632.5,198.2,633.4,197.8,636.5L197.8,636.5z M197.8,636.5c0.3-3,4.2-4.2,6.7-5.1
			c5.8-1.6,11.9-1.9,17.8-0.7c10,2.2,10,9.3,0,11.5c-5.9,1.2-12.1,0.9-17.8-0.7C202,640.7,198.1,639.6,197.8,636.5L197.8,636.5z"/>
	</g>
	<g>
		<path class="st1" d="M304.1,659.1c-46.8-44-141.5-131.5-187.7-175.8c0-0.2-0.2-161.6-0.2-161.9c-0.1-0.2,49-87.3,49-87.5
			c0,0,0.4-0.7,0.4-0.7c0.4-0.1,162.8,58.7,163.3,58.7c0,0,0.6,0.2,0.6,0.2l0,0.6l-0.1,55.8l-1-0.8c0.1,0,125.1-34.7,125.3-34.4
			c0,0,141.7,53.8,141.7,53.8l-142-52.8c1.9-0.2-125,35-124.4,35c0,0-1,0.3-1,0.3l0-1.1l-0.1-55.8l0.6,0.8l-162.6-58.2l1.2-0.5
			l-49,87.3c0.1-2.4,0,161.7,0,161.2C162.5,524.3,258.3,616,304.1,659.1L304.1,659.1z"/>
	</g>
	<g>
		<path class="st1" d="M328.7,348.5c1.4,10,1.4,20.2,0,30.3C327.3,368.8,327.3,358.6,328.7,348.5L328.7,348.5z"/>
	</g>
	<g>
		<path class="st1" d="M166.1,513.6c-1.4-38.5-1.4-77,0-115.4C167.5,436.6,167.5,475.1,166.1,513.6L166.1,513.6z"/>
	</g>
	<g>
		<path class="st1" d="M286.8,373.2c-21.7,5-43.4,9.7-65.1,14.3c0,0-21.8,4.6-21.8,4.6l0.8-0.9l0,14.9c-0.2,27.3-0.5,62-1.1,89.2
			c-0.1,5-0.2,9.9-0.4,14.9c-0.1-5-0.2-9.9-0.2-14.9c-0.4-32.8-0.5-71.3-0.2-104.1c0,0,0-0.8,0-0.8l0.7-0.2
			C228.2,384.5,258,378.5,286.8,373.2L286.8,373.2z"/>
	</g>
	<g>
		<path class="st1" d="M426.1,340.6l0.5,32.7l0,0.4c-14.7,3-29.4,6.1-44.1,9l-43.8,8.7l-1.2,0.2l0-1.2l0.1-27.3l0-0.7l0.7-0.2
			C362.9,355.9,401.3,346.6,426.1,340.6L426.1,340.6z M426.1,340.6c-14.5,3.9-51.6,14-65.6,17.7c0,0-21.7,5.7-21.7,5.7l0.7-0.9
			l0.1,27.3l-1.2-1l43.8-8.4c14.6-2.8,29.2-5.5,43.9-8.2l-0.4,0.5L426.1,340.6L426.1,340.6z"/>
	</g>
	<g>
		<path class="st1" d="M338.6,363.1c2.6,0.2,5.2,0.7,7.8,1.2c0.2,4.2,0.2,8.5,0.1,12.7c-0.2,4-0.5,8.1-1.1,12.1
			c-0.8-6-0.9-12.1-0.7-18.2c0.1-2,0.2-4,0.3-6l0.6,0.7C343.1,364.8,340.8,364,338.6,363.1L338.6,363.1z"/>
	</g>
	<g>
		<path class="st1" d="M345.6,364.9c26.5-8,53.4-14.7,80.5-20C399.7,352.8,372.8,359.5,345.6,364.9L345.6,364.9z"/>
	</g>
	<g>
		<path class="st1" d="M348.1,388.5c-0.4-7.6-0.6-15.1-0.7-22.7c6.7-1.8,13.3-3.5,20-5.2c19.5-4.9,39.1-9.6,58.8-13.5
			c-19.3,5.7-38.8,10.6-58.3,15.3c-6.5,1.6-13,3.1-19.6,4.6l0.5-0.7C348.6,373.8,348.4,381.1,348.1,388.5L348.1,388.5z"/>
	</g>
	<g>
		<path class="st1" d="M348.1,366.4c0.7-0.2,1.5-0.3,2.2-0.4l0.1,0.4c0.8,5.4,0.8,10.9,0.4,16.3c-0.6,6.6-0.8,6.7-1.5,0
			c-0.4-5.4-0.4-10.9,0.4-16.3c0,0,0.3,0.3,0.3,0.3C349.3,366.6,348.7,366.5,348.1,366.4L348.1,366.4z"/>
	</g>
	<g>
		<path class="st1" d="M366.2,361.9c1.4,7.6,1.4,15.5,0,23.1C364.9,377.3,364.9,369.5,366.2,361.9L366.2,361.9z"/>
	</g>
	<g>
		<path class="st1" d="M369,361.2c1.4,7.6,1.4,15.4,0,23C367.6,376.6,367.6,368.8,369,361.2L369,361.2z"/>
	</g>
	<g>
		<path class="st1" d="M370.8,361.2c1.4,7.6,1.4,15.4,0,22.9C369.4,376.6,369.5,368.8,370.8,361.2L370.8,361.2z"/>
	</g>
	<g>
		<path class="st1" d="M396.3,354.8c1.4,8,1.4,16.2,0,24.2C394.9,371.1,395,362.8,396.3,354.8L396.3,354.8z"/>
	</g>
	<g>
		<path class="st1" d="M400.1,378.3c-1.4-8.2-1.4-16.6,0-24.8C401.4,361.8,401.4,370.2,400.1,378.3L400.1,378.3z"/>
	</g>
	<g>
		<path class="st1" d="M402.3,353c1.4,8.2,1.4,16.6,0,24.8C400.9,369.6,400.9,361.2,402.3,353L402.3,353z"/>
	</g>
	<g>
		<path class="st1" d="M453.5,425.9c32.3-0.7,64.6-0.1,96.9,1.9C518.1,428.6,485.8,428,453.5,425.9L453.5,425.9z"/>
	</g>
	<g>
		<path class="st1" d="M479.2,346.8c1.4,17.4,1.4,34.9,0,52.3C477.9,381.7,477.9,364.2,479.2,346.8L479.2,346.8z"/>
	</g>
	<g>
		<path class="st1" d="M518,360.7c1.4,14.5,1.4,29.1,0,43.6C516.7,389.8,516.7,375.2,518,360.7L518,360.7z"/>
	</g>
	<g>
		<path class="st1" d="M541.6,369.1c1.4,12.7,1.4,25.6,0,38.3C540.2,394.7,540.2,381.8,541.6,369.1L541.6,369.1z"/>
	</g>
	<g>
		<path class="st1" d="M572.9,380.3c1.4,10.7,1.4,21.6,0,32.3C571.5,401.9,571.5,391,572.9,380.3L572.9,380.3z"/>
	</g>
	<g>
		<path class="st1" d="M572.9,380.3c-1.5,0.5-3.1,0.8-4.6,1.2l0.4-0.5c0.6,7.5,0.6,15,0.2,22.5c-0.2,2.5-0.4,5-0.7,7.5
			c-1-7.5-1.1-15-0.9-22.5c0.1-2.7,0.2-5.3,0.4-8C569.4,380.4,571.1,380.3,572.9,380.3L572.9,380.3z"/>
	</g>
	<g>
		<path class="st1" d="M568.2,381c-9.2-1.5-18.2-4.4-26.6-8.6C550.8,373.9,559.8,376.9,568.2,381L568.2,381z"/>
	</g>
	<g>
		<path class="st1" d="M518,360.7c-2.1,0.5-4.2,0.9-6.2,1.3l0.4-0.5c0.6,10.5,0.6,20.9,0.2,31.4c-0.2,3.5-0.4,7-0.7,10.5
			c-0.4-3.5-0.6-7-0.7-10.5c-0.4-10.5-0.4-20.9,0.2-31.4c0,0,0-0.5,0-0.5C513.5,360.8,515.8,360.7,518,360.7L518,360.7z"/>
	</g>
	<g>
		<path class="st1" d="M511.7,361.4c-11.2-2.4-22.2-6.2-32.5-11.2C490.5,352.6,501.4,356.4,511.7,361.4L511.7,361.4z"/>
	</g>
	<g>
		<path class="st1" d="M509.8,403.2c-0.9-13.5-1-27-1-40.5c0,0,0.7,0.9,0.7,0.9c-5.1-1.7-10.1-3.5-15.2-5.4c-5-1.9-10.1-3.8-15-5.8
			c5.2,1.4,10.4,2.9,15.5,4.4c5.4,1.6,10.7,3.3,16,5.1l0,0.7C510.8,376.2,510.6,389.7,509.8,403.2L509.8,403.2z"/>
	</g>
	<g>
		<path class="st1" d="M492.4,356.8c1.4,14.6,1.4,29.4,0,44C491,386.2,491,371.4,492.4,356.8L492.4,356.8z"/>
	</g>
	<g>
		<path class="st1" d="M489.9,400.5c-0.8-14.8-1-29.7-1-44.5c0,0,1.4,0.9,1.4,0.9l-1.8,0.8l0.6-0.9c0,14.3-0.2,29.2-1,43.4
			c-0.8-14.2-0.9-29.1-1-43.4c0,0,0-0.6,0-0.6l0.6-0.3c0.8-0.4,2.4-1.2,3.2-1.5C490.9,369.8,490.7,385.1,489.9,400.5L489.9,400.5z"
			/>
	</g>
	<g>
		<path class="st1" d="M509.8,362.6l-1.3,0.7l0.1-0.2c1.1,13.2,1.2,26.5-0.2,39.7c-0.4-3.3-0.6-6.6-0.8-9.9
			c-0.4-9.9-0.3-19.9,0.6-29.8c0,0,0-0.1,0-0.1l0.1,0L509.8,362.6L509.8,362.6z"/>
	</g>
	<g>
		<path class="st1" d="M508.4,363.2c-5.6-0.4-11.2-2.1-16-5.1C498,358.5,503.6,360.2,508.4,363.2L508.4,363.2z"/>
	</g>
	<g>
		<path class="st1" d="M488.1,356.8c-3.2,0.3-6.5-0.8-8.9-3C482.5,353.4,485.7,354.6,488.1,356.8L488.1,356.8z"/>
	</g>
	<g>
		<path class="st1" d="M566.6,410.8c-0.8-9.6-1-19.2-1-28.8c0,0,0.7,0.9,0.7,0.9c-4.2-1.3-8.3-2.6-12.4-4c-4.1-1.4-8.2-2.8-12.3-4.5
			c6.4,1.3,12.7,3,19,4.7c2.3,0.6,4.6,1.3,7,2C567.6,391.1,567.4,401,566.6,410.8L566.6,410.8z"/>
	</g>
	<g>
		<path class="st1" d="M554.1,378.3c1.4,10.2,1.4,20.6,0,30.9C552.7,398.9,552.7,388.5,554.1,378.3L554.1,378.3z"/>
	</g>
	<g>
		<path class="st1" d="M552.4,408.9c-0.8-10.4-1-20.7-1-31.1c0,0,1.4,0.9,1.4,0.9l-1.2,0.5l0.6-0.9l-0.1,7.6c0,2.5-0.1,5.1-0.2,7.6
			c-0.1,5.1-0.4,10.2-0.8,15.2c-0.8-10.2-0.9-20.9-1-31.1c0.9-0.4,2.3-0.9,3.2-1.3C553.4,387.1,553.2,398,552.4,408.9L552.4,408.9z"
			/>
	</g>
	<g>
		<path class="st1" d="M566.6,382c-0.4,0.2-1.3,0.8-0.9,0.4c1.1,9.4,1.2,18.9-0.2,28.3c-1.4-9.4-1.3-18.9-0.2-28.3c0,0,0-0.2,0-0.2
			C565.7,382.1,566.1,382.1,566.6,382L566.6,382z"/>
	</g>
	<g>
		<path class="st1" d="M565.4,382.4c-4,0.2-8.1-0.9-11.4-3.3C558.1,378.8,562.2,380,565.4,382.4L565.4,382.4z"/>
	</g>
	<g>
		<path class="st1" d="M551.2,378.3c-3.4,0.4-7-0.6-9.6-2.9C545,375,548.5,376,551.2,378.3L551.2,378.3z"/>
	</g>
	<g>
		<path class="st1" d="M590.8,325.3c1.3,77.6,1.3,156.1,0,233.8C589.5,481.4,589.5,402.9,590.8,325.3L590.8,325.3z"/>
	</g>
	<g>
		<path class="st1" d="M453.9,281.5c1.3,111.7,1.3,237,0,348.7C452.5,518.5,452.6,393.2,453.9,281.5L453.9,281.5z"/>
	</g>
	<g>
		<path class="st1" d="M444.1,285.4c1.3,113.7,1.3,241.3,0,355C442.8,526.7,442.8,399.1,444.1,285.4L444.1,285.4z"/>
	</g>
	<g>
		<path class="st1" d="M329.1,278.1c1.3,126.8,1.3,269,0,395.8C327.8,547.1,327.8,404.8,329.1,278.1L329.1,278.1z"/>
	</g>
	<g>
		<path class="st1" d="M166.1,208.4c1.3,114.5,1.3,242.9,0,357.3C164.8,451.3,164.8,322.8,166.1,208.4L166.1,208.4z"/>
	</g>
	<g>
		<path class="st1" d="M388.9,253.9c1.3,98.7,1.3,198.5,0,297.2C387.6,452.4,387.6,352.6,388.9,253.9L388.9,253.9z"/>
	</g>
	<g>
		<path class="st1" d="M117.2,288.2c1.3,76.5,1.3,153.9,0,230.5C115.8,442.2,115.8,364.8,117.2,288.2L117.2,288.2z"/>
	</g>
	<g>
		<path class="st1" d="M286.4,345.5c1.3,76.5,1.3,153.9,0,230.5C285.1,499.4,285.1,422,286.4,345.5L286.4,345.5z"/>
	</g>
	<g>
		<path class="st1" d="M600.8,352.4C454.9,295.8,291.7,231,146.7,172C292.6,228.6,455.8,293.4,600.8,352.4L600.8,352.4z"/>
	</g>
	<g>
		<path class="st1" d="M108.5,315.6c26.3-48.4,54-96.6,82.6-143.6C164.8,220.3,137.1,268.6,108.5,315.6L108.5,315.6z"/>
	</g>
	<g>
		<path class="st1" d="M212.3,264.9c1.4,41.1,1.4,82.3,0,123.4C210.9,347.2,211,306.1,212.3,264.9L212.3,264.9z"/>
	</g>
	<g>
		<path class="st1" d="M540.7,434.7c-25.5,0.3-61.7,0.8-86.9,0.9c0,0,0.9-0.9,0.9-0.9l0.1,55.2l-1.1-1l43.5-5.9
			c14.5-2,29-3.8,43.5-5.8l-0.5,0.6C540.3,465.7,540.5,446.8,540.7,434.7L540.7,434.7z M540.7,434.7c0.1,12.3,0.5,31,0.6,43.1
			c0,0,0,0.5,0,0.5l-0.5,0.1c-14.5,2.1-28.9,4.3-43.4,6.4l-43.4,6.2l-1.1,0.2l0-1.1l0.1-55.2l0-0.9
			C478.6,433.8,514.8,434.4,540.7,434.7L540.7,434.7z"/>
	</g>
	<g>
		<path class="st1" d="M535.2,434.7c1.3,14,1.2,28.2,0.5,42.2c0,0-0.4-0.5-0.4-0.5c1.8,0.4,3.6,0.8,5.4,1.3c-2-0.1-4-0.3-5.9-0.4
			l0-0.4C534,462.8,533.9,448.7,535.2,434.7L535.2,434.7z"/>
	</g>
	<g>
		<path class="st1" d="M535.2,476.9c-26.9,4.9-54.1,8.5-81.4,10.7C480.8,482.7,507.9,479.1,535.2,476.9L535.2,476.9z"/>
	</g>
	<g>
		<path class="st1" d="M532.6,434.7c0.5,13.5,0.8,27,0.9,40.5c0,0,0,0.8,0,0.8c-6.8,0.9-13.6,1.7-20.5,2.5
			c-19.7,2.3-39.4,4.4-59.2,5.9c19.6-3.1,39.2-5.6,58.9-7.9c6.6-0.7,13.1-1.5,19.7-2.2l-0.8,0.9C531.8,461.7,532,448.2,532.6,434.7
			L532.6,434.7z"/>
	</g>
	<g>
		<path class="st1" d="M497.3,434.7c1.4,14.8,1.4,29.8,0,44.7C495.9,464.5,495.9,449.5,497.3,434.7L497.3,434.7z"/>
	</g>
	<g>
		<path class="st1" d="M490.8,479.8c-1.4-15-1.4-30.1,0-45.1C492.2,449.7,492.1,464.8,490.8,479.8L490.8,479.8z"/>
	</g>
	<g>
		<path class="st1" d="M493.2,434.7c1.4,15,1.4,30.1,0,45.1C491.8,464.8,491.8,449.7,493.2,434.7L493.2,434.7z"/>
	</g>
	<g>
		<path class="st1" d="M532.6,475.2c-0.7,0.1-1.4,0.2-2.2,0.2l0-0.2c-1.1-13.5-1.1-27.1,0.2-40.5c1.4,13.5,1.3,27.1,0.2,40.5
			c0,0-0.2-0.2-0.2-0.2C531.3,475,531.9,475.1,532.6,475.2L532.6,475.2z"/>
	</g>
</g>
<g>
	<g>
		<linearGradient id="SVGID_1_" gradientUnits="userSpaceOnUse" x1="270.8036" y1="644.6951" x2="521.9366" y2="37.8273">
			<stop  offset="0" style="stop-color:#F6F5D1"/>
			<stop  offset="0.1404" style="stop-color:#EBC982"/>
			<stop  offset="0.324" style="stop-color:#735020"/>
			<stop  offset="0.5914" style="stop-color:#BE9751"/>
			<stop  offset="0.7903" style="stop-color:#503013"/>
			<stop  offset="1" style="stop-color:#F6F5D1"/>
		</linearGradient>
		<path class="st3" d="M721.7,379.2c-2.5,21.3-6.9,42.3-13.5,62.7c-6.5,20.4-15.1,40.2-25.4,58.9c-20.7,37.6-48.9,71-82.4,97.8
			c-33.5,26.9-72.5,47-113.8,58.8c-41.3,11.9-85,15.3-127.7,10.3c-42.7-5.1-84.3-18.5-121.8-39.6c-18.7-10.5-36.4-22.9-52.7-36.8
			c-16.3-13.9-31.3-29.4-44.6-46.3c-26.6-33.7-46.6-72.5-58.4-113.7c-5.9-20.6-9.8-41.8-11.6-63.2c-1.8-21.4-1.5-42.9,0.9-64.3
			c4.8-42.7,18-84.4,38.9-122c10.4-18.8,22.7-36.6,36.5-53c13.9-16.4,29.4-31.4,46.2-44.8c33.7-26.8,72.6-46.9,114-58.7
			c41.4-11.9,85.1-15.3,127.8-10.4c42.7,5,84.5,18.3,122,39.4c37.5,21,70.8,49.5,97.3,83.3c26.5,33.8,46.4,72.8,57.9,114.1
			c5.8,20.6,9.6,41.8,11.3,63.2C724.6,336.4,724.2,357.9,721.7,379.2z M721.4,379.2c4.8-42.5,1.4-86-10.6-127.1
			c-11.9-41.1-32-79.7-58.7-113.1c-26.7-33.3-59.9-61.4-97.2-82c-18.7-10.3-38.3-18.8-58.6-25.3c-20.3-6.5-41.2-11-62.4-13.5
			c-21.2-2.4-42.6-2.8-63.8-1.1c-21.2,1.7-42.3,5.6-62.8,11.4c-41,11.6-79.7,31.5-113.1,57.9c-33.4,26.5-61.7,59.5-82.5,96.7
			c-20.9,37.2-34.2,78.6-39.3,121c-5,42.4-1.7,85.9,10,127c5.8,20.6,13.7,40.5,23.5,59.6c9.7,19,21.4,37.1,34.7,53.8
			c13.3,16.7,28.3,32.2,44.6,46c16.3,13.8,34,26,52.7,36.3c18.7,10.3,38.4,18.8,58.7,25.2c20.3,6.5,41.3,10.9,62.5,13.3
			c21.2,2.4,42.6,2.8,63.9,1c21.3-1.7,42.3-5.6,62.8-11.4c41.1-11.6,79.7-31.5,113.3-57.8c33.6-26.4,61.9-59.4,82.9-96.7
			C703.1,463.2,716.4,421.7,721.4,379.2z"/>
	</g>
</g>
<g>
	<g>
		
			<radialGradient id="SVGID_00000134222329284792140260000006505033803351721901_" cx="1634.59" cy="-9690.3242" r="38.8261" gradientTransform="matrix(0.6042 -1.0761 -0.8359 -0.4693 -8970.4883 -2508.2427)" gradientUnits="userSpaceOnUse">
			<stop  offset="0" style="stop-color:#606060;stop-opacity:0.8"/>
			<stop  offset="0.7011" style="stop-color:#5A5959;stop-opacity:0.1"/>
			<stop  offset="1" style="stop-color:#5A5959;stop-opacity:0"/>
		</radialGradient>
		<path style="opacity:0.5;fill:url(#SVGID_00000134222329284792140260000006505033803351721901_);" d="M140.8,238.6
			c-17.9-10.1-43,0.5-55.9,23.6c-13,23.1-8.9,49.9,9,60c17.9,10.1,43-0.5,55.9-23.6C162.7,275.5,158.7,248.7,140.8,238.6z"/>
		<g>
			
				<radialGradient id="SVGID_00000112632229195758023290000004034915992616374187_" cx="10973.7725" cy="4066.1694" r="44.974" gradientTransform="matrix(0.856 0.5169 0.5169 -0.856 -11420.9385 -1938.0072)" gradientUnits="userSpaceOnUse">
				<stop  offset="0" style="stop-color:#54A976"/>
				<stop  offset="0.5726" style="stop-color:#83B89C"/>
				<stop  offset="0.7193" style="stop-color:#8CBC9E"/>
				<stop  offset="0.9611" style="stop-color:#A5C5A5"/>
				<stop  offset="1" style="stop-color:#AAC7A6"/>
			</radialGradient>
			<circle style="fill:url(#SVGID_00000112632229195758023290000004034915992616374187_);" cx="74.2" cy="253.9" r="45"/>
			<g>
				<path class="st6" d="M117.4,249.1c0.4,0.9,1,1.8,1.1,1.3c0.4-1.2-0.8-6.2-1.8-5.7c-0.1,0-0.1,0.2-0.2,0.3
					C116.3,246.1,117,248.1,117.4,249.1"/>
				<path class="st6" d="M112.3,267.4c1.7-0.4,2.7-2.6,1.2-3.5c-0.9-0.5-2.3,0-2.8,1.5C110.5,266.9,111.3,267.6,112.3,267.4"/>
				<path class="st6" d="M109.2,282.2c1-1.1,2.1-2.7,2-2.9c-0.5-0.1-4.2,3.6-4.5,4.7c0,0.5,1-0.3,2-1.3
					C108.9,282.5,109.1,282.3,109.2,282.2"/>
				<path class="st6" d="M98.8,228.1c2.1,1.1,3.8-0.1,3.2-2.3c-0.8-2.8-4.5-4.3-5.4-2.3c0,0.1-0.1,0.2-0.1,0.2
					C96,225.6,97.6,227.4,98.8,228.1"/>
				<path class="st6" d="M88.4,265.8c3.1,0.1,5.1-4.4,2.9-6.7c-1.4-1.6-4.5-1.2-5.5,2.3C85.2,264.3,87,265.7,88.4,265.8"/>
				<path class="st6" d="M81.9,296.3c2.5-0.5,3.9-1.9,2.7-2.7c-1.5-1-5.9-0.1-6.3,1.6C78.3,296.5,80.5,296.6,81.9,296.3"/>
				<path class="st6" d="M68,218.5c2.9-0.1,5-2.7,3.4-4.2c-1.5-1.4-5.3-0.6-6.2,1.7C64.7,217.8,66.5,218.5,68,218.5"/>
				<path class="st6" d="M57,257.9c2.9,0.6,5.2-4,3.2-6.8c-1.5-2.1-4.6-1.6-5.6,1.8C54,256,55.7,257.7,57,257.9"/>
				<path class="st6" d="M50.2,289.9c1.9,1.1,3.2,0.8,2.8-0.6c-0.7-2.1-4.8-4.5-5.6-3.2c0,0.1-0.1,0.2-0.1,0.3
					C47.2,287.7,49.1,289.2,50.2,289.9"/>
				<path class="st6" d="M41.1,225.4c2-1.5,3.1-3.3,2.4-3.5c-0.8-0.2-3.7,2.4-4.3,4c-0.2,0.7,0.5,0.4,1.1,0.1
					C40.4,225.9,40.7,225.7,41.1,225.4"/>
				<path class="st6" d="M34.8,248c1.3,0.7,2.7-1.6,2-3.5c-0.6-1.6-2.3-1.4-2.9,0c0,0.1-0.1,0.3-0.1,0.4
					C33.5,246.5,34.2,247.7,34.8,248"/>
				<path class="st6" d="M31,266.3c0.5,1.4,1,2.2,1.1,1.9c0.3-0.7-1.6-6.4-2-6.1c0,0,0,0.1,0,0.1C30,262.8,30.4,264.7,31,266.3"/>
			</g>
			<g class="st7">
				
					<image style="overflow:visible;" width="40" height="16" xlink:href="./7FF87917.png"  transform="matrix(1 0 0 1 32.1073 230.3044)">
				</image>
				
					<image style="overflow:visible;" width="40" height="16" xlink:href="./7FF87912.png"  transform="matrix(1 0 0 1 32.1073 230.3044)">
				</image>
			</g>
			
				<radialGradient id="SVGID_00000159459286221655576410000014588096912281273512_" cx="-1265.3456" cy="-3089.7446" r="15.6445" gradientTransform="matrix(-0.2294 -1.1805 -1.0751 0.2089 -3559.1377 -582.7794)" gradientUnits="userSpaceOnUse">
				<stop  offset="0" style="stop-color:#FFFFFF"/>
				<stop  offset="1" style="stop-color:#FFFFFF;stop-opacity:0"/>
			</radialGradient>
			<path style="opacity:0.5;fill:url(#SVGID_00000159459286221655576410000014588096912281273512_);" d="M49.2,246.6
				c-9.4,1.8-15.4,11.8-13.4,22.2c2,10.4,11.3,17.4,20.7,15.6c9.4-1.8,15.4-11.8,13.4-22.2C67.8,251.7,58.6,244.8,49.2,246.6z"/>
		</g>
	</g>
	<g>
		
			<radialGradient id="SVGID_00000068669141723799789410000016760381519905395365_" cx="-4082.7537" cy="-10502.0586" r="20.9873" gradientTransform="matrix(-0.7093 -1.0099 -0.965 0.6779 -12426.2002 3101.1582)" gradientUnits="userSpaceOnUse">
			<stop  offset="0" style="stop-color:#606060;stop-opacity:0.8"/>
			<stop  offset="0.7011" style="stop-color:#5A5959;stop-opacity:0.1"/>
			<stop  offset="1" style="stop-color:#5A5959;stop-opacity:0"/>
		</radialGradient>
		<path style="opacity:0.5;fill:url(#SVGID_00000068669141723799789410000016760381519905395365_);" d="M589.1,84
			c-11.2,7.9-13.6,23.7-5.4,35.4c8.2,11.7,24,14.8,35.1,7c11.2-7.9,13.6-23.7,5.4-35.4C616,79.3,600.2,76.2,589.1,84z"/>
		<g>
			
				<image style="overflow:visible;" width="40" height="39" xlink:href="./7FF87913.png"  transform="matrix(1 0 0 1 594.1072 69.3043)">
			</image>
		</g>
	</g>
	<g>
		
			<radialGradient id="SVGID_00000019653796363949420690000007485644234778312894_" cx="-1333.1481" cy="-9422.0479" r="12.6219" gradientTransform="matrix(-0.6631 1.0408 0.9946 0.6336 9051.3809 7989.9141)" gradientUnits="userSpaceOnUse">
			<stop  offset="0" style="stop-color:#606060;stop-opacity:0.8"/>
			<stop  offset="0.7011" style="stop-color:#5A5959;stop-opacity:0.1"/>
			<stop  offset="1" style="stop-color:#5A5959;stop-opacity:0"/>
		</radialGradient>
		<path style="opacity:0.5;fill:url(#SVGID_00000019653796363949420690000007485644234778312894_);" d="M556.3,645.4
			c6.9,4.4,16.3,2.1,20.9-5.1c4.6-7.3,2.7-16.7-4.2-21.1c-6.9-4.4-16.3-2.1-20.9,5.1C547.4,631.5,549.3,641,556.3,645.4z"/>
		<g>
			
				<image style="overflow:visible;" width="24" height="24" xlink:href="./7FF8791E.png"  transform="matrix(1 0 0 1 541.1072 618.3043)">
			</image>
		</g>
	</g>
</g>
</svg>
